<svg xmlns="http://www.w3.org/2000/svg" xmlns:xlink="http://www.w3.org/1999/xlink" viewBox="0 0 1599.39 264.25"><defs><style>.cls-1{isolation:isolate;}.cls-2{fill:url(#linear-gradient);}.cls-3,.cls-7{opacity:0.6;mix-blend-mode:screen;}.cls-3{fill:url(#linear-gradient-2);}.cls-4{fill:url(#linear-gradient-3);}.cls-5{fill:url(#linear-gradient-4);}.cls-6{fill:url(#linear-gradient-5);}.cls-7{fill:url(#linear-gradient-6);}.cls-10,.cls-11,.cls-12,.cls-13,.cls-8,.cls-9{mix-blend-mode:multiply;}.cls-8{fill:url(#linear-gradient-7);}.cls-9{fill:url(#linear-gradient-8);}.cls-10{fill:url(#linear-gradient-9);}.cls-11{fill:url(#linear-gradient-10);}.cls-12{fill:url(#linear-gradient-11);}.cls-13{fill:url(#linear-gradient-12);}.cls-14{fill:url(#linear-gradient-13);}.cls-15{fill:url(#linear-gradient-14);}</style><linearGradient id="linear-gradient" x1="425.93" y1="456.9" x2="118.96" y2="456.9" gradientTransform="translate(166.43 7.03) rotate(17.24)" gradientUnits="userSpaceOnUse"><stop offset="0" stop-color="#fc0"/><stop offset="1" stop-color="#ff6d00"/></linearGradient><linearGradient id="linear-gradient-2" x1="399.74" y1="484.29" x2="119.12" y2="484.29" gradientTransform="translate(166.43 7.03) rotate(17.24)" gradientUnits="userSpaceOnUse"><stop offset="0" stop-color="#fc0"/><stop offset="1" stop-color="#ffc600"/></linearGradient><linearGradient id="linear-gradient-3" x1="166.47" y1="420.95" x2="373.05" y2="420.95" gradientTransform="translate(166.43 7.03) rotate(17.24)" gradientUnits="userSpaceOnUse"><stop offset="0" stop-color="#e93d7b"/><stop offset="1" stop-color="#8e0350"/></linearGradient><linearGradient id="linear-gradient-4" x1="217.1" y1="489.63" x2="320.31" y2="489.63" gradientTransform="matrix(1, 0, 0, 1, 0, 0)" xlink:href="#linear-gradient-3"/><linearGradient id="linear-gradient-5" x1="402.73" y1="512.05" x2="163.56" y2="512.05" gradientTransform="matrix(1, 0, 0, 1, 0, 0)" xlink:href="#linear-gradient"/><linearGradient id="linear-gradient-6" x1="384.98" y1="448.24" x2="133.82" y2="448.24" xlink:href="#linear-gradient-2"/><linearGradient id="linear-gradient-7" x1="313.36" y1="590.48" x2="319.47" y2="508.06" gradientUnits="userSpaceOnUse"><stop offset="0" stop-color="#e93d7b" stop-opacity="0"/><stop offset="1" stop-color="#8e0350"/></linearGradient><linearGradient id="linear-gradient-8" x1="276.3" y1="495.46" x2="225.66" y2="384.17" xlink:href="#linear-gradient-7"/><linearGradient id="linear-gradient-9" x1="230.93" y1="550.23" x2="231.19" y2="550.23" xlink:href="#linear-gradient-7"/><linearGradient id="linear-gradient-10" x1="231.15" y1="550.7" x2="231.72" y2="550.7" xlink:href="#linear-gradient-7"/><linearGradient id="linear-gradient-11" x1="230.18" y1="549.4" x2="230.62" y2="549.4" xlink:href="#linear-gradient-7"/><linearGradient id="linear-gradient-12" x1="261.09" y1="488.65" x2="334.99" y2="411.42" xlink:href="#linear-gradient-7"/><linearGradient id="linear-gradient-13" x1="234.86" y1="554.48" x2="307.87" y2="481.47" gradientTransform="matrix(1, 0, 0, 1, 0, 0)" xlink:href="#linear-gradient-3"/><linearGradient id="linear-gradient-14" x1="235.4" y1="555.6" x2="314.6" y2="476.4" gradientTransform="matrix(1, 0, 0, -1, 0, 1032)" xlink:href="#linear-gradient-3"/></defs><title>conb</title><g class="cls-1"><g id="Layer_1" data-name="Layer 1"><path d="M578.35,540.11A75.12,75.12,0,0,1,552,560.66a84.09,84.09,0,0,1-65.22.94A76.44,76.44,0,0,1,445.15,520a82.13,82.13,0,0,1,0-62.17,76.53,76.53,0,0,1,41.63-41.62,79.31,79.31,0,0,1,31.29-6.12q18.13,0,31.93,6.33a74.28,74.28,0,0,1,24.56,18.33l-2.85,2.76a27.74,27.74,0,0,1-32.49,4.29l-.18-.09q-8.74-4.63-20.76-4.64a53.13,53.13,0,0,0-19.81,3.69,48.13,48.13,0,0,0-16.12,10.43A49.22,49.22,0,0,0,471.5,467.5a59.08,59.08,0,0,0,0,42.79,49.22,49.22,0,0,0,10.85,16.33,47.82,47.82,0,0,0,16.12,10.43,53.13,53.13,0,0,0,19.81,3.69,47.47,47.47,0,0,0,22.45-5.16l.45-.24a31.9,31.9,0,0,1,37.17,4.77Z" transform="translate(-140.61 -387.22)"/><path d="M675.08,567.72a79.31,79.31,0,0,1-31.29-6.12,76.2,76.2,0,0,1-41.52-41.83,82.31,82.31,0,0,1,0-61.75,76.2,76.2,0,0,1,41.52-41.83,83.07,83.07,0,0,1,62.59,0,76.9,76.9,0,0,1,25,16.75A77.73,77.73,0,0,1,747.9,458a82.44,82.44,0,0,1,0,61.75,76.28,76.28,0,0,1-41.52,41.83A79.39,79.39,0,0,1,675.08,567.72Zm0-27A51,51,0,0,0,694.79,537a49.65,49.65,0,0,0,16-10.54,48.07,48.07,0,0,0,10.74-16.33,59.46,59.46,0,0,0,0-42.36,48,48,0,0,0-10.74-16.34,49.81,49.81,0,0,0-16-10.54,53.12,53.12,0,0,0-39.41,0,49.81,49.81,0,0,0-16,10.54,47.89,47.89,0,0,0-10.75,16.34,59.46,59.46,0,0,0,0,42.36,47.94,47.94,0,0,0,10.75,16.33,49.65,49.65,0,0,0,16,10.54A51,51,0,0,0,675.08,540.74Z" transform="translate(-140.61 -387.22)"/><path d="M787.94,413.45h0a47.07,47.07,0,0,1,40.37,22.85l47,78.31H877l-1.68-29.09V413.45h0a28.24,28.24,0,0,1,28.24,28.24V558.76a5.58,5.58,0,0,1-5.59,5.58h0a43,43,0,0,1-36.86-20.87l-51.55-86h-1.69l1.69,29.09v77.76h0a28,28,0,0,1-28-28V419.88A6.43,6.43,0,0,1,787.94,413.45Z" transform="translate(-140.61 -387.22)"/><path d="M938.52,413.45h68.7a27,27,0,0,1,27,27H967v36.67h33.51a27,27,0,0,1,27,27H967v31.82a28.45,28.45,0,0,1-28.45,28.45h0Z" transform="translate(-140.61 -387.22)"/><path d="M1060.75,468.45a55,55,0,0,1,55-55h0a56.82,56.82,0,0,1,20.65,3.58,47.73,47.73,0,0,1,15.91,9.9A43.15,43.15,0,0,1,1162.55,442a50,50,0,0,1,3.58,19.08,39.51,39.51,0,0,1-2.53,14.22,42.61,42.61,0,0,1-6.95,12,51.12,51.12,0,0,1-10.33,9.49,52.52,52.52,0,0,1-12.44,6.43l-.21,1.47,40.47,58v1.68h0A62.11,62.11,0,0,1,1123,537.43l-20.48-29.78h0a13.29,13.29,0,0,0-13.28,13.28v43.41h0a28.45,28.45,0,0,1-28.45-28.45Zm54.8,13.07q9.69,0,15.91-5.9a19.76,19.76,0,0,0,6.22-15,22.87,22.87,0,0,0-1.37-7.79,19.84,19.84,0,0,0-4.11-6.75,20.44,20.44,0,0,0-6.85-4.74,23.35,23.35,0,0,0-9.38-1.79h0a26.77,26.77,0,0,0-26.77,26.77v15.17Z" transform="translate(-140.61 -387.22)"/><path d="M1196.06,413.45h0a28.45,28.45,0,0,1,28.45,28.45V564.34h0a28.44,28.44,0,0,1-28.45-28.45Z" transform="translate(-140.61 -387.22)"/><path d="M1266.78,413.45h0a45.55,45.55,0,0,1,39.07,22.12l47.42,79H1355l-1.69-29.09V413.45h0a28.24,28.24,0,0,1,28.24,28.24V559a5.34,5.34,0,0,1-5.34,5.34h0A43.39,43.39,0,0,1,1339,543.26l-51.43-85.77h-1.69l1.69,29.09v77.76h0a28,28,0,0,1-28-28V420.74A7.29,7.29,0,0,1,1266.78,413.45Z" transform="translate(-140.61 -387.22)"/><path d="M1510.28,481.52h43.93a6.89,6.89,0,0,1,6.86,6v.07a61.57,61.57,0,0,1,.42,7.17,83.53,83.53,0,0,1-4.42,27.39,63.51,63.51,0,0,1-13.91,23,70,70,0,0,1-24.24,16.65q-14.12,5.89-32.24,5.9a81.65,81.65,0,0,1-31-5.9,77.19,77.19,0,0,1-25.29-16.44,78.74,78.74,0,0,1-17.07-25,81.57,81.57,0,0,1,0-63,78.86,78.86,0,0,1,17.07-25A77,77,0,0,1,1455.7,416a81.47,81.47,0,0,1,31-5.91q18.33,0,32.77,6.33a73.25,73.25,0,0,1,24.76,17.49l-1.67,1.63a30.53,30.53,0,0,1-34.18,5.72l-.18-.08q-9.08-4.11-21.71-4.11a52.49,52.49,0,0,0-19.6,3.69,49.21,49.21,0,0,0-16.23,10.43,49.72,49.72,0,0,0-11.06,16.33,57.74,57.74,0,0,0,0,42.79,48.94,48.94,0,0,0,11.17,16.33,50,50,0,0,0,16.33,10.43,53.05,53.05,0,0,0,19.81,3.69q12,0,20.34-3.48a47.66,47.66,0,0,0,14.22-9,34.1,34.1,0,0,0,7.27-9.59,54.73,54.73,0,0,0,4.75-13h-47.42A24.23,24.23,0,0,1,1510.28,481.52Z" transform="translate(-140.61 -387.22)"/><path d="M1661.18,567.72a79.39,79.39,0,0,1-31.3-6.12,76.28,76.28,0,0,1-41.52-41.83,82.44,82.44,0,0,1,0-61.75,77.73,77.73,0,0,1,16.55-25.08,76.9,76.9,0,0,1,25-16.75,83.1,83.1,0,0,1,62.6,0A76.22,76.22,0,0,1,1734,458a82.31,82.31,0,0,1,0,61.75,76.22,76.22,0,0,1-41.51,41.83A79.39,79.39,0,0,1,1661.18,567.72Zm0-27a51.07,51.07,0,0,0,19.71-3.79,49.6,49.6,0,0,0,16-10.54,47.94,47.94,0,0,0,10.75-16.33,59.46,59.46,0,0,0,0-42.36,47.89,47.89,0,0,0-10.75-16.34,49.77,49.77,0,0,0-16-10.54,53.15,53.15,0,0,0-39.42,0,49.66,49.66,0,0,0-16,10.54,47.89,47.89,0,0,0-10.75,16.34,59.46,59.46,0,0,0,0,42.36,47.94,47.94,0,0,0,10.75,16.33,49.5,49.5,0,0,0,16,10.54A51,51,0,0,0,1661.18,540.74Z" transform="translate(-140.61 -387.22)"/><path class="cls-2" d="M401.72,507.36c-.07-.88-.15-1.75-.24-2.63a129.81,129.81,0,0,0-11.15-41.11c-1-2.17-2.05-4.31-3.17-6.43l-.48-.91c-.43-.81-.88-1.61-1.33-2.41s-.89-1.57-1.35-2.35c-.08-.12-.15-.24-.22-.36q-.57-1-1.17-1.92c-.45-.74-.92-1.47-1.4-2.21-.24-.37-.48-.74-.73-1.11s-.51-.77-.77-1.15l-.22-.33c-.47-.7-1-1.39-1.45-2.08s-1.14-1.59-1.73-2.38h0c-.37-.5-.75-1-1.14-1.49-.21-.29-.43-.57-.65-.86-.64-.83-1.3-1.64-2-2.45-.47-.58-.95-1.16-1.44-1.73-.29-.35-.59-.7-.89-1l-1.11-1.27-.27-.31h0l-.2-.22c-.42-.48-.86-1-1.3-1.43l-.41-.45-.05-.06h0c-.14-.15-.28-.31-.43-.46l-1.57-1.64c-.67-.69-1.36-1.38-2.05-2.05l-.6-.56q-1.14-1.12-2.31-2.19c-.42-.39-.84-.78-1.27-1.16l0,0h0l-.44-.38q-4.2-3.74-8.65-7.05l-1.06-.8-2.37-1.68-1.4-1-2.23-1.48c-.55-.36-1.11-.71-1.67-1.06l-2.07-1.28-2.08-1.21c-.59-.34-1.17-.69-1.77-1-1.29-.72-2.6-1.43-3.92-2.1-.83-.42-1.65-.83-2.48-1.23l-2.3-1.09-.2-.09c-.84-.38-1.68-.76-2.52-1.12s-1.69-.72-2.54-1.07q-2.55-1.05-5.13-2a126.77,126.77,0,0,0-13.12-4q-3.87-1-7.8-1.67l-.23,0-2.52-.43-.84-.13-2.05-.3c-.55-.07-1.11-.15-1.67-.21l-1-.13-2.13-.23-.57-.06h-.11c-.75-.07-1.5-.14-2.24-.19l-.4,0-.65,0-2.08-.13-.7,0c-.89-.05-1.78-.09-2.68-.11A131.1,131.1,0,0,0,249.79,389c-1.6.26-3.19.56-4.77.88q-2.94.6-5.86,1.35c-1.5.37-3,.78-4.49,1.22s-2.86.86-4.28,1.34c-.49.15-1,.32-1.49.5a126.1,126.1,0,0,0-14.36,5.91A130.85,130.85,0,0,0,191,414.85c-1.88,1.46-3.7,3-5.48,4.52-.89.78-1.76,1.56-2.63,2.35s-1.71,1.59-2.55,2.4l-1.25,1.23A130.77,130.77,0,0,0,329.56,635.11l1.53-.77c.74-.38,1.48-.76,2.21-1.16l2.19-1.21q3.6-2,7.11-4.31t6.9-4.81l2.25-1.72.83-.66,0,0c.74-.58,1.47-1.17,2.19-1.76,1-.83,2-1.68,3-2.53l1.45-1.29c.95-.87,1.89-1.74,2.82-2.63l1.38-1.34c.47-.45.92-.9,1.35-1.36s.89-.91,1.33-1.37c.86-.9,1.7-1.81,2.53-2.72l.09-.11,1.13-1.27.27-.31c1.19-1.36,2.34-2.75,3.46-4.15.93-1.15,1.82-2.31,2.69-3.48l.74-1c.41-.55.8-1.1,1.2-1.66l.85-1.23c.75-1.08,1.47-2.16,2.18-3.26.33-.52.67-1,1-1.57.56-.89,1.1-1.79,1.64-2.7.31-.51.61-1,.9-1.54s.66-1.14,1-1.71c.08-.15.17-.29.24-.44l.54-1c.22-.4.43-.8.64-1.21l.55-1.06c.6-1.16,1.17-2.33,1.72-3.5q.65-1.34,1.23-2.67c.11-.21.21-.43.3-.65.22-.5.44-1,.65-1.51.37-.86.73-1.72,1.07-2.58.21-.49.4-1,.58-1.46l.21-.53c.24-.63.48-1.26.7-1.9s.53-1.45.78-2.19l.51-1.5q.31-.93.6-1.86c.13-.4.25-.81.38-1.22.65-2.1,1.23-4.22,1.76-6.35l.3-1.23c.15-.59.29-1.18.41-1.77l.39-1.78c.08-.34.15-.68.21-1,0-.06,0-.13,0-.2.05-.22.09-.45.13-.67.11-.56.22-1.12.32-1.68l.3-1.71a.15.15,0,0,0,0-.09,1.26,1.26,0,0,0,0-.27c.08-.51.17-1,.24-1.53s.15-1,.22-1.47c.12-.76.22-1.53.31-2.3.07-.54.13-1.09.19-1.64,0-.34.08-.68.11-1l0-.27.21-2.23a.55.55,0,0,0,0-.18,2.45,2.45,0,0,1,0-.27c.09-1.1.17-2.2.23-3.3l.09-1.82c0-.61.05-1.22.06-1.82l0-1.52a5.79,5.79,0,0,0,0-.72Q402.21,513.34,401.72,507.36Zm-160.46-31.3h0l.27-.18c.26-.2.53-.38.8-.56a.91.91,0,0,1,.16-.11c.3-.21.61-.42.92-.61l.89-.56.68-.41.13-.08c.7-.42,1.42-.82,2.14-1.2l.26-.14,1.18-.59,1.21-.58.14-.06c.45-.21.91-.41,1.37-.59s.92-.39,1.38-.56.65-.25,1-.36a3.39,3.39,0,0,1,.41-.15c.47-.17.93-.33,1.4-.47.94-.31,1.88-.58,2.83-.82s1.9-.47,2.86-.66a51.36,51.36,0,0,1,17.26-.48c1,.12,1.89.28,2.83.47a51.33,51.33,0,0,1,17.9,7.19c.5.32,1,.64,1.47,1a48.94,48.94,0,0,1,4,3.07c.76.64,1.5,1.31,2.23,2a51.66,51.66,0,0,1,15.85,41.49c0,.46-.08.92-.13,1.38,0,.28-.06.57-.1.85s-.06.5-.09.75-.11.77-.18,1.15-.15.91-.24,1.37-.17.88-.26,1.32a.19.19,0,0,1,0,.07c-.09.44-.19.88-.31,1.32s-.22.9-.35,1.35-.24.89-.38,1.33-.22.74-.35,1.1a2.53,2.53,0,0,1-.12.36c-.12.4-.26.79-.41,1.18-.31.88-.65,1.74-1,2.6-.18.43-.36.86-.57,1.28s-.38.85-.6,1.27a51.12,51.12,0,0,1-13,16.66c-.5.43-1,.84-1.53,1.25l0,0c-.59.46-1.19.9-1.79,1.33s-1.21.85-1.82,1.25c-.92.6-1.86,1.17-2.81,1.7l-.95.52c-.63.35-1.27.67-1.92,1l-1,.46c-.65.3-1.3.59-2,.85-1.32.54-2.65,1-4,1.44l-1,.31c-.67.2-1.35.38-2,.55a51.38,51.38,0,0,1-16.78,1.32c-.47,0-.93-.08-1.39-.13l-1.14-.14h0l-.24,0c-.47-.06-.93-.13-1.39-.21l-1.08-.19c-.39-.07-.78-.15-1.16-.24s-.8-.17-1.19-.27l-1-.24-.95-.25-.95-.27c-.4-.12-.79-.24-1.19-.38s-.86-.28-1.29-.44-.85-.3-1.28-.47-.85-.33-1.27-.51l-1.26-.54c-.83-.37-1.65-.76-2.47-1.18s-1.63-.87-2.43-1.33-1.55-.93-2.3-1.43l-1.26-.85c-.36-.25-.73-.51-1.08-.78s-.75-.55-1.12-.85-.73-.57-1.09-.88-.59-.48-.87-.74l-1.08-1-.18-.16-.12-.11c-.29-.26-.57-.53-.85-.81l-.16-.16-.4-.4c-.14-.13-.27-.27-.4-.4l-.29-.3-.15-.16c-.23-.23-.45-.46-.66-.7l-.16-.18-.38-.41-.42-.49c-.26-.29-.51-.59-.75-.88a5.08,5.08,0,0,1-.43-.54.53.53,0,0,1-.14-.17,1.34,1.34,0,0,1-.11-.14,4,4,0,0,1-.26-.32l0,0h0l-.17-.21c-.17-.21-.34-.43-.49-.65-.32-.43-.63-.87-.94-1.31l0,0,0,0c-.1-.14-.21-.29-.3-.43-.27-.39-.53-.79-.78-1.19-.37-.57-.72-1.14-1.06-1.72s-.56-1-.82-1.45l-.17-.31-.14-.26q-.33-.62-.63-1.23l-.21-.44c0-.1-.1-.19-.14-.29-.22-.45-.42-.9-.62-1.35s-.38-.86-.55-1.3l-.33-.81-.07-.18c-.17-.45-.34-.91-.5-1.37s-.32-.92-.46-1.38a2.41,2.41,0,0,1-.08-.25c-.09-.28-.18-.56-.25-.84-.26-.83-.48-1.66-.68-2.5-.13-.52-.25-1-.35-1.55,0-.14-.06-.27-.08-.4-.06-.28-.11-.56-.16-.84s-.13-.71-.18-1.06-.11-.67-.16-1c-.1-.69-.18-1.38-.25-2.07s-.12-1.32-.16-2q0-.57-.06-1.14c0-.28,0-.55,0-.83a1.45,1.45,0,0,1,0-.36c0-.57,0-1.14,0-1.71a51,51,0,0,1,.34-5.09,51.8,51.8,0,0,1,2.05-9.68,53.7,53.7,0,0,1,2.65-6.73c.42-.87.86-1.74,1.33-2.59s1-1.7,1.48-2.53,1.07-1.64,1.63-2.44q1.27-1.81,2.73-3.52c.64-.76,1.31-1.5,2-2.23a51.36,51.36,0,0,1,5.66-5.12l0,0C240.19,476.84,240.72,476.44,241.26,476.06Z" transform="translate(-140.61 -387.22)"/><path class="cls-3" d="M325.36,636.13a130.73,130.73,0,0,1-133-222.26l-.45.32-.17.13c-.24.17-.48.34-.71.53-1.88,1.46-3.7,3-5.48,4.52-.89.78-1.76,1.56-2.63,2.35s-1.71,1.59-2.55,2.4l-1.25,1.23A130.77,130.77,0,0,0,329.56,635.11l1.53-.77c.74-.38,1.48-.76,2.21-1.16l2.19-1.21q3.6-2,7.11-4.31t6.9-4.81l2.25-1.72c.47-.37.91-.76,1.38-1.13A131.07,131.07,0,0,1,325.36,636.13ZM314.89,484.07a51.61,51.61,0,0,0-72.44-9l-1.18,1h0l-.19.16a52.11,52.11,0,0,1,4.38-2.86l.85-.48.06,0c.89-.5,1.8-1,2.73-1.42.61-.29,1.23-.57,1.85-.84l.48-.21.9-.37,1.29-.49.16-.06.07,0,.88-.31.86-.29,1.06-.32.82-.24,1-.26c.76-.2,1.53-.37,2.3-.53a51.6,51.6,0,0,1,17.82-.61c1,.13,1.89.29,2.83.47a51.33,51.33,0,0,1,17.9,7.19c.5.32,1,.64,1.47,1a48.94,48.94,0,0,1,4,3.07c.76.64,1.5,1.31,2.23,2a51.66,51.66,0,0,1,15.85,41.49c0,.46-.08.92-.13,1.38,0,.29-.06.57-.1.85l-.09.75c-.05.38-.11.77-.18,1.15s-.15.91-.24,1.37-.17.88-.26,1.32a.19.19,0,0,1,0,.07c-.1.44-.2.88-.31,1.32s-.22.9-.35,1.35-.25.89-.38,1.33-.23.74-.35,1.1a2.53,2.53,0,0,1-.12.36c-.13.4-.27.79-.41,1.18-.32.88-.66,1.74-1,2.6l-.57,1.28c-.19.43-.39.85-.6,1.27a51.38,51.38,0,0,1-13.22,16.8l.19-.14c.42-.29.83-.6,1.24-.91A51.63,51.63,0,0,0,314.89,484.07Z" transform="translate(-140.61 -387.22)"/><path class="cls-4" d="M230.21,549.11l.26.37.17.22h0C230.49,549.5,230.35,549.31,230.21,549.11Zm171.51-41.75c-.07-.88-.15-1.75-.24-2.63a129.23,129.23,0,0,0-5.34-26,125.55,125.55,0,0,0-5.81-15.1c-1-2.16-2-4.31-3.15-6.43v0c-.16-.3-.32-.6-.49-.89-.28-.55-.58-1.09-.88-1.63-.46-.83-.94-1.66-1.42-2.49l-.38-.64c-.08-.12-.15-.24-.22-.36q-.57-1-1.17-1.92c-.45-.74-.92-1.47-1.4-2.21-.24-.37-.48-.74-.73-1.11s-.65-1-1-1.48c-.47-.7-1-1.39-1.45-2.08s-1.14-1.59-1.73-2.38h0c-.37-.5-.75-1-1.14-1.49-.21-.29-.43-.57-.65-.86-.64-.83-1.3-1.64-2-2.45-.47-.58-.95-1.16-1.44-1.73-.29-.35-.59-.7-.89-1l-1.11-1.27c-.09-.1-.18-.21-.28-.31l-.2-.22c-.42-.48-.86-1-1.3-1.43l-.41-.45-.06-.06q-1-1.07-2-2.1c-.68-.7-1.36-1.38-2.05-2.05q-2.07-2-4.2-3.94h0a129.92,129.92,0,0,0-27.66-19c-.83-.42-1.65-.83-2.48-1.23l-2.3-1.09-.2-.09c-.84-.38-1.68-.76-2.52-1.12s-1.69-.72-2.54-1.07q-2.55-1-5.13-2a131.88,131.88,0,0,0-13.12-4c-2.22-.54-4.46-1-6.7-1.45l-1.1-.22-.23,0-2.52-.43-.84-.13-2.05-.3c-.55-.07-1.11-.15-1.67-.21l-1-.13-2.13-.23-.57-.06h-.11c-.75-.07-1.5-.14-2.24-.19l-.4,0q-1.37-.1-2.73-.18c-.82.41-1.64.83-2.45,1.27l-1.91,1-.63.35c-.77.44-1.54.88-2.31,1.34a124.58,124.58,0,0,0-11.21,7.46c-.72.53-1.43,1.08-2.14,1.63q-2.13,1.67-4.17,3.39c-.91.77-1.8,1.55-2.68,2.34-.66.6-1.32,1.2-2,1.81-.42.38-.83.78-1.24,1.18l-.65.62c-.41.4-.83.81-1.24,1.23s-.82.82-1.22,1.24h0c-1.21,1.25-2.39,2.51-3.53,3.8a122.5,122.5,0,0,0-14.11,19.35q-.72,1.23-1.41,2.46c-.57,1-1.13,2.08-1.68,3.13s-1,1.94-1.45,2.91c-.71,1.49-1.39,3-2,4.49-1.28,3-2.44,6-3.46,9.06l-.51,1.55c-.32,1-.62,2-.92,3.05a0,0,0,0,1,0,0c-.29,1-.56,2-.83,3.06a0,0,0,0,1,0,0c-6.84,26.69-3.43,54.7,11.36,77.7.89,1.38,1.82,2.75,2.8,4.09.09.14.2.29.3.43q-.56-.8-1.08-1.62c-.36-.57-.72-1.14-1.06-1.72s-.55-1-.82-1.45l-.17-.31-.14-.26q-.33-.62-.63-1.23l-.21-.44c0-.1-.1-.19-.14-.29-.22-.45-.42-.9-.62-1.35s-.38-.87-.55-1.3c-.12-.27-.22-.54-.33-.81l-.07-.18c-.17-.46-.34-.91-.5-1.37s-.32-.92-.46-1.38a2.41,2.41,0,0,1-.08-.25c-.09-.28-.18-.56-.25-.84-.26-.83-.48-1.66-.68-2.5-.13-.52-.25-1-.35-1.55,0-.14-.06-.27-.08-.4-.06-.28-.12-.56-.16-.84s-.13-.71-.18-1.06-.12-.67-.16-1c-.1-.69-.19-1.38-.25-2.07s-.13-1.32-.16-2q0-.57-.06-1.14a7.67,7.67,0,0,1,0-.83,1.45,1.45,0,0,1,0-.36,49.1,49.1,0,0,1,.33-6.86,51.19,51.19,0,0,1,2.05-9.62,49.75,49.75,0,0,1,2.65-6.73c.42-.88.86-1.74,1.33-2.59s1-1.7,1.48-2.53,1.06-1.64,1.63-2.44q1.27-1.81,2.73-3.52c.64-.76,1.31-1.5,2-2.23a51.36,51.36,0,0,1,5.66-5.12l0,0c.52-.4,1.05-.8,1.59-1.18h0l.27-.18c.26-.2.53-.38.8-.56a.91.91,0,0,1,.16-.11c.3-.21.61-.42.92-.61l.89-.56.68-.41.13-.08c.7-.42,1.42-.82,2.14-1.2l.26-.14,1.18-.59,1.21-.58.14-.06c.45-.21.91-.41,1.37-.59s.92-.39,1.38-.56.65-.25,1-.36a3.39,3.39,0,0,1,.41-.15c.47-.17.93-.33,1.4-.47.94-.31,1.88-.58,2.83-.82s1.9-.47,2.86-.66a51.36,51.36,0,0,1,17.26-.48c1,.12,1.89.28,2.83.47a51.33,51.33,0,0,1,17.9,7.19c.5.32,1,.64,1.47,1a48.94,48.94,0,0,1,4,3.07c.76.64,1.5,1.31,2.23,2a51.66,51.66,0,0,1,15.85,41.49c0,.46-.08.92-.13,1.38,0,.28-.06.57-.1.85s-.06.5-.09.75-.11.77-.18,1.15-.15.91-.24,1.37-.17.88-.26,1.32a.19.19,0,0,1,0,.07c-.09.44-.19.88-.31,1.32s-.22.9-.35,1.35-.24.89-.38,1.33-.22.74-.35,1.1a2.53,2.53,0,0,1-.12.36c-.12.4-.26.79-.41,1.18-.31.88-.65,1.74-1,2.6-.18.43-.36.86-.57,1.28s-.38.85-.6,1.27a51.12,51.12,0,0,1-13,16.66c-.5.43-1,.84-1.53,1.25l0,0c-.59.46-1.19.9-1.79,1.33s-1.21.85-1.82,1.25c-.93.6-1.86,1.16-2.81,1.7l-.95.52c-.63.35-1.27.67-1.92,1l-1,.46c-.65.3-1.3.59-2,.85-1.32.54-2.65,1-4,1.44l-1,.31c-.67.2-1.35.38-2,.55a51.38,51.38,0,0,1-16.78,1.32c-.46,0-.93-.08-1.39-.13l-1.14-.14-.28,0-1.39-.21-1.08-.19-1.16-.24c-.4-.08-.79-.17-1.19-.27l-1-.24-.95-.25-.95-.27-1.19-.38c-.43-.14-.86-.28-1.29-.44l-1.28-.47c-.43-.16-.85-.33-1.27-.51l-1.26-.54c-.83-.37-1.65-.76-2.47-1.18s-1.63-.87-2.43-1.33-1.55-.93-2.3-1.43l-1.26-.85-1.08-.78-1.12-.85c-.11-.09-.23-.18-.35-.29s-.5-.38-.74-.59a1.14,1.14,0,0,1-.17-.15c-.24-.19-.47-.39-.7-.59l-1.08-1-.18-.16-.12-.11c-.19-.18-.38-.35-.56-.54l-.29-.27-.16-.16-.4-.4c-.14-.13-.27-.27-.4-.4l-.29-.3-.15-.16-.66-.7-.16-.18-.72-.81c.11.13.22.27.34.4,1.81,2.16,3.71,4.22,5.68,6.15C260.17,580,291.15,589,322.36,585.09h0a118.56,118.56,0,0,0,19-4A124.12,124.12,0,0,0,382,560c.68-.53,1.35-1.07,2-1.61a123.83,123.83,0,0,0,12-11.12c1.27-1.34,2.51-2.7,3.7-4.09l0,0c.11-.55.21-1.1.3-1.66s.16-.83.23-1.25c0-.19.07-.37.09-.55a1.26,1.26,0,0,0,0-.27c.05-.21.08-.43.11-.65s.1-.58.13-.88.11-.62.15-.93.05-.36.07-.54c.12-.76.22-1.53.31-2.3.07-.54.13-1.09.19-1.64.05-.34.09-.68.11-1l0-.27c.08-.75.15-1.49.21-2.23a.55.55,0,0,0,0-.18,2.45,2.45,0,0,1,0-.27c.09-1.1.17-2.2.23-3.3l.09-1.82c0-.61.05-1.22.06-1.82l0-1.52a5.79,5.79,0,0,0,0-.72Q402.22,513.34,401.72,507.36ZM230.47,549.48l.17.21c-.15-.19-.29-.38-.43-.58Z" transform="translate(-140.61 -387.22)"/><path class="cls-5" d="M387.17,457.17v0c-20.41,39.57-44.48,66.76-61.62,83-12.83,12.14-21.78,18.12-22.41,18.53.52-.41,1-.82,1.53-1.25a51.12,51.12,0,0,0,13-16.66c.22-.42.42-.84.6-1.27s.39-.85.57-1.28c.37-.86.71-1.72,1-2.6.15-.39.29-.78.41-1.18a2.53,2.53,0,0,0,.12-.36c.13-.36.24-.73.35-1.1s.27-.88.38-1.33.25-.9.35-1.35.22-.88.31-1.32a.19.19,0,0,0,0-.07c.09-.44.18-.88.26-1.32s.17-.91.24-1.37.13-.77.18-1.15.07-.5.09-.75.08-.57.1-.85c.05-.46.1-.92.13-1.38A51.66,51.66,0,0,0,307,480.6c-.73-.7-1.47-1.37-2.23-2a48.94,48.94,0,0,0-4-3.07c-.48-.34-1-.66-1.47-1a51.33,51.33,0,0,0-17.9-7.19c-.94-.19-1.88-.35-2.83-.47a51.36,51.36,0,0,0-17.26.48c-1,.19-1.91.41-2.86.66s-1.89.51-2.83.82c-.47.14-.93.3-1.4.47a3.39,3.39,0,0,0-.41.15c-.32.11-.65.23-1,.36s-.92.36-1.38.56-.92.38-1.37.59l-.14.06-1.21.58-1.18.59-.26.14c-.72.38-1.44.78-2.14,1.2l-.13.08-.68.41-.89.56c-.31.19-.62.4-.92.61a.91.91,0,0,0-.16.11c-.27.18-.54.36-.8.56l-.27.18h0c-.54.38-1.07.78-1.59,1.18A173.4,173.4,0,0,1,260,462c19.57-12.84,52.89-30.78,98.53-41.44h0q2.13,1.9,4.2,3.94h0c.68.67,1.36,1.35,2,2.05h0l1.57,1.64.44.46.05.06.41.45c.44.47.88.95,1.3,1.43l.21.22.27.31,1.11,1.27c.3.34.6.69.89,1,.49.57,1,1.15,1.44,1.73.66.81,1.32,1.62,2,2.45.22.29.44.57.65.86.39.5.77,1,1.14,1.49h0c.59.79,1.17,1.58,1.73,2.38s1.13,1.6,1.67,2.41c.26.38.52.76.77,1.15s.49.74.73,1.11c.48.74,1,1.47,1.4,2.21s.79,1.28,1.17,1.92c.07.12.14.24.22.36l.38.64c.33.57.66,1.14,1,1.71.16.26.3.52.45.78.3.54.6,1.08.88,1.63C386.85,456.57,387,456.87,387.17,457.17Z" transform="translate(-140.61 -387.22)"/><path class="cls-6" d="M399.71,543.13c-.06.3-.12.6-.19.89s-.13.69-.21,1l-.39,1.78c-.12.59-.26,1.18-.41,1.77l-.3,1.23c-.53,2.13-1.11,4.25-1.76,6.35-.13.41-.25.82-.38,1.22q-.29.93-.6,1.86l-.51,1.5c-.25.74-.5,1.47-.78,2.19s-.46,1.27-.7,1.9l-.21.53c-.18.49-.37,1-.58,1.46-.34.86-.7,1.72-1.07,2.58-.21.5-.43,1-.65,1.51-.09.22-.19.44-.3.65q-.59,1.33-1.23,2.67c-.55,1.17-1.12,2.34-1.72,3.5l-.55,1.06c-.21.41-.42.81-.64,1.21l-.54,1c-.07.15-.16.29-.24.44-.31.57-.64,1.14-1,1.71s-.59,1-.9,1.54c-.53.91-1.08,1.81-1.64,2.7-.33.53-.67,1.05-1,1.57-.71,1.1-1.43,2.18-2.18,3.26l-.85,1.23c-.4.56-.79,1.11-1.2,1.66l-.74,1c-.87,1.17-1.76,2.33-2.69,3.48-1.11,1.4-2.26,2.79-3.46,4.15l-.27.31-1.13,1.27-.09.11c-.83.91-1.67,1.82-2.53,2.72-.44.46-.88.92-1.33,1.37s-.88.91-1.35,1.36L362,612.23c-.92.9-1.86,1.78-2.82,2.63l-1.45,1.29c-1,.87-2,1.71-3,2.53s-2,1.66-3.05,2.46c-.75.58-1.5,1.16-2.26,1.71q-3.39,2.55-6.9,4.81T335.49,632l-2.19,1.21c-.73.4-1.47.78-2.21,1.16l-1.53.77-1.55.75c-.88.1-1.77.19-2.65.27C274,641,223.1,622,190.91,580.71s-38.16-95.35-20.87-144c.28-.81.58-1.62.88-2.43q3.84-4.64,8.16-8.94l1.25-1.23q1.26-1.22,2.55-2.4c.87-.79,1.74-1.57,2.63-2.35,1.78-1.54,3.61-3.05,5.49-4.51l.7-.54.17-.13a131.23,131.23,0,0,1,22.67-14,129.85,129.85,0,0,1,14.36-5.91c.5-.18,1-.35,1.49-.5,1.42-.48,2.85-.92,4.28-1.34s3-.84,4.49-1.22q2.93-.75,5.86-1.35c1.58-.32,3.17-.62,4.77-.88a131.1,131.1,0,0,1,25.15-1.73c.9,0,1.79.06,2.68.11l.7,0c-.82.41-1.64.83-2.45,1.27-.64.34-1.28.68-1.91,1l-.63.35c-.77.43-1.54.87-2.31,1.34a124.58,124.58,0,0,0-11.21,7.46c-.72.53-1.43,1.08-2.14,1.63q-2.13,1.67-4.17,3.39c-.91.77-1.8,1.55-2.68,2.34-.66.6-1.32,1.2-2,1.81-.42.38-.83.78-1.24,1.18l-.65.62c-.41.4-.83.81-1.24,1.23s-.81.82-1.22,1.24h0c-1.21,1.24-2.38,2.51-3.53,3.8a122.5,122.5,0,0,0-14.11,19.35c-.48.81-1,1.64-1.41,2.46-.57,1-1.13,2.08-1.68,3.13s-1,1.93-1.45,2.91c-.71,1.49-1.39,3-2,4.49q-1.94,4.49-3.46,9.06l-.51,1.55c-.33,1-.63,2-.92,3.05a0,0,0,0,1,0,0c-.3,1-.58,2-.83,3.06a0,0,0,0,1,0,0c-6.92,26.93-3.41,55.19,11.7,78.3q1.76,2.7,3.75,5.3c.15.22.32.44.49.65l.17.22h0l0,0a4,4,0,0,0,.26.32,1.34,1.34,0,0,0,.11.14.53.53,0,0,0,.14.17,5.08,5.08,0,0,0,.43.54,84.2,84.2,0,0,0,6.21,7c21.72,21.92,53,31.2,84.52,27.2h0a116.42,116.42,0,0,0,19-4A124.12,124.12,0,0,0,382,560c.68-.53,1.35-1.07,2-1.61a123.83,123.83,0,0,0,12-11.12c1.27-1.34,2.51-2.7,3.7-4.09Z" transform="translate(-140.61 -387.22)"/><path class="cls-7" d="M399.41,544.52a127.24,127.24,0,0,1-14.19,12.91c-.57.44-1.15.84-1.72,1.27a123.54,123.54,0,0,0,16.21-15.57C399.62,543.6,399.51,544.05,399.41,544.52ZM170.92,434.29A128.09,128.09,0,0,1,191,414.86c.58-.46,1.19-.88,1.78-1.33a128.33,128.33,0,0,0-18.6,18.21c-18.35,49.26-12.75,104.4,20,146.42s84.84,60.92,137.1,55.16a129.13,129.13,0,0,0,22.2-13.59c-.58.47-1.14.95-1.72,1.41A129.09,129.09,0,0,1,328,635.86c-52.25,5.77-104.36-13.14-137.1-55.15S152.56,483.55,170.92,434.29Zm106-46.93c.47,0,.94,0,1.41.05a124.29,124.29,0,0,0-19,11.9c.56-.45,1.09-.91,1.66-1.35A124.85,124.85,0,0,1,276.91,387.36Z" transform="translate(-140.61 -387.22)"/><path class="cls-8" d="M402.12,519.62q-.06,4.44-.41,8.87a2.45,2.45,0,0,0,0,.27c-.07.8-.14,1.6-.22,2.41l0,.27c0,.34-.07.68-.11,1-.06.55-.12,1.1-.19,1.64-.09.77-.19,1.54-.31,2.3,0,.18,0,.36-.07.54-.09.61-.18,1.21-.28,1.81,0,.22-.06.44-.11.65a1.26,1.26,0,0,1,0,.27.15.15,0,0,1,0,.09c0,.16,0,.31-.07.46-.07.42-.14.84-.23,1.25s-.19,1.11-.3,1.66l0,0c-1.19,1.39-2.43,2.75-3.7,4.09a123.83,123.83,0,0,1-12,11.12c-.67.54-1.34,1.08-2,1.61a124.12,124.12,0,0,1-40.58,21.08,118.56,118.56,0,0,1-19,4h0c-31.21,3.94-62.19-5.13-83.88-26.64-2-1.93-3.87-4-5.68-6.15-.12-.13-.23-.27-.34-.4l.72.81.16.18.66.7.15.16.29.3c.13.14.26.27.4.4l.4.4.45.43.68.65.18.16,1.08,1c.23.2.46.4.7.59s.61.5.91.74a51.49,51.49,0,0,0,25,10.67l.24.08h0A98,98,0,0,0,274.79,572C305.57,578.8,350.31,573.25,402.12,519.62Z" transform="translate(-140.61 -387.22)"/><path class="cls-9" d="M219.82,506.41v0c0,1.92.13,3.8.28,5.62v.06c0,.08,0,.17,0,.25a51.57,51.57,0,0,0,5.74,30l.17.31c.27.49.54,1,.82,1.45s.7,1.15,1.06,1.72.71,1.09,1.08,1.62c-.1-.14-.21-.29-.3-.43-1-1.34-1.91-2.71-2.8-4.09-14.79-23-18.2-51-11.36-77.7a0,0,0,0,0,0,0c.27-1,.54-2,.83-3.06a0,0,0,0,0,0,0c.3-1,.6-2,.92-3.05l.51-1.55c1-3,2.18-6.08,3.46-9.06.66-1.51,1.34-3,2-4.49.47-1,1-2,1.45-2.91s1.11-2.09,1.68-3.13q.69-1.23,1.41-2.46A122.5,122.5,0,0,1,241,416.12c1.14-1.29,2.32-2.55,3.53-3.8h0c.4-.42.81-.83,1.22-1.24s.83-.83,1.24-1.23l.65-.62c.41-.4.82-.8,1.24-1.18.64-.61,1.3-1.21,2-1.81.88-.79,1.77-1.57,2.68-2.34q2-1.72,4.17-3.39c.71-.55,1.42-1.1,2.14-1.63A124.58,124.58,0,0,1,271,391.41c.77-.46,1.54-.9,2.31-1.34l.63-.35,1.91-1c.81-.44,1.63-.86,2.45-1.27l2.08.13.65,0,.4,0c.74.05,1.49.12,2.24.19h.11l.57.06,2.13.23,1,.13c2.82.35,5.62.8,8.41,1.33,1.94.38,3.87.79,5.79,1.25C233.65,429.93,219.17,474.46,219.82,506.41Z" transform="translate(-140.61 -387.22)"/><path class="cls-10" d="M231,550.08l.25.3a1,1,0,0,1-.14-.16A1.34,1.34,0,0,1,231,550.08Z" transform="translate(-140.61 -387.22)"/><path class="cls-11" d="M231.2,550.39s0,0,0,0l.54.65Z" transform="translate(-140.61 -387.22)"/><path class="cls-12" d="M230.64,549.69h0l-.17-.22-.26-.37C230.35,549.31,230.49,549.5,230.64,549.69Z" transform="translate(-140.61 -387.22)"/><path class="cls-13" d="M358.57,420.58c-1.51.44-46.3,13.46-86.64,39.5q-3.78,2.44-7.49,5c-1.06.74-2.12,1.49-3.17,2.25h0l-.39.08c-.83.17-1.64.36-2.46.57l-1,.26c-.27.07-.55.15-.82.24l-1.06.32-.86.29-.54.18-.34.13-.07,0-.16.06-.81.3c-.46.17-.92.36-1.38.56l-.48.21-.89.38-.14.06-.82.4a3.52,3.52,0,0,0-.39.18l-1.18.59-.26.14-1,.54a9.12,9.12,0,0,0-.85.48l-.33.18-.13.08-.68.41-.89.56c-.31.2-.62.4-.92.61a.91.91,0,0,0-.16.11c-.27.18-.54.36-.8.56l-.27.18h0c-.54.38-1.07.78-1.59,1.18A173.4,173.4,0,0,1,260,462C279.61,449.18,312.93,431.24,358.57,420.58Z" transform="translate(-140.61 -387.22)"/><path d="M637.67,615.29a2.29,2.29,0,0,0-1.95-1.34l-.43.06q-4.1.91-6.42,1.62a44.49,44.49,0,0,0-5.62,2.23l-.43.06-4.09,1.59a4,4,0,0,0-.64.27c-.39.19-.69.32-.89.4a1.41,1.41,0,0,1-.43.12c-.08,0-.28.14-.61.28a15,15,0,0,0-1.4.76l-2,.86a6.1,6.1,0,0,1-.91.55c-.41.2-.68.32-.8.36a27,27,0,0,0-3.48,1.75,30.32,30.32,0,0,1-2.93,1.55,11.79,11.79,0,0,1-3.06,1.87,11.42,11.42,0,0,0-2.93,1.74,3.55,3.55,0,0,1-.74.58L595.82,632c-1,.65-1.51,1-1.59,1a45.08,45.08,0,0,0-4.34,3.24l-.37.31a5.37,5.37,0,0,1-1.28,1.22,10.77,10.77,0,0,0-1.35,1.16,20.54,20.54,0,0,0-2.13,1.8,19.56,19.56,0,0,1-2.14,1.81c-.41.32-1,.89-1.9,1.71s-1.52,1.48-2,2L578,647a3.55,3.55,0,0,1-1,.7,2.76,2.76,0,0,1-1,.39l-1.29.37a5.51,5.51,0,0,1-4,0l-.49-.24a10.79,10.79,0,0,1-2.29-1.56,6.79,6.79,0,0,1-1.68-2.32,22.54,22.54,0,0,1-1.16-3.58,13.57,13.57,0,0,1-.37-2.81l.13-2.14a23.35,23.35,0,0,1,1.52-6.66c0-.08.19-.55.43-1.4a7.39,7.39,0,0,1,.61-1.65q.44-.92,1.44-3.36t2-4.46l1.29-2.45,2.38-3.85a36.66,36.66,0,0,1,5.74-6.35l.68-.61a17.72,17.72,0,0,1,4-3.06,10.37,10.37,0,0,1,4.52-1.22l1.22-.12,2.69.12a5.5,5.5,0,0,1,1.5.37,5.58,5.58,0,0,0,1.62.36l.3-.36c.16-.61.67-.92,1.53-.92a3.41,3.41,0,0,1,2.17.58,1.86,1.86,0,0,1,.7,1.5,3.34,3.34,0,0,1-.3,1.16,10.22,10.22,0,0,0-.43,1.16l-1.1,2.51L598.2,609a.72.72,0,0,1-.09.24c-.06.13-.26.43-.58.92a5.09,5.09,0,0,0-.49.8,2.41,2.41,0,0,0-.49,1.58v.68l.06.61a3,3,0,0,1-.24,1.13c-.17.38-.9.68-2.2.88a4.18,4.18,0,0,1-1.47-.42l-1-.74a9.33,9.33,0,0,1,.37-2.93,1.26,1.26,0,0,1,0-.21c0-.11.1-.48.24-1.14s.3-1.22.46-1.71a4.1,4.1,0,0,1,.67-1.4l.55-1.22c0-.21-.21-.37-.52-.49a2.41,2.41,0,0,0-.88-.19H592a8.88,8.88,0,0,0-4,2l-.67.49a3.18,3.18,0,0,1-.85.73,7.81,7.81,0,0,0-1.32,1.5c-.63.83-1,1.29-1.07,1.37a35.13,35.13,0,0,0-2.65,3.91c-.84,1.43-1.3,2.2-1.38,2.33l-1.34,2.38a3.28,3.28,0,0,1-.43.67,1.47,1.47,0,0,0-.37.73,3.94,3.94,0,0,0-.85,1.53l-3,6.3a10.08,10.08,0,0,0-.67,1.71l-.24.73a4,4,0,0,1-.37,1.07,4,4,0,0,0-.37,1.07,19.67,19.67,0,0,0-1.28,6.48,2.72,2.72,0,0,0,1.65,2.74h.37a8.27,8.27,0,0,0,3.42-1.28c.28-.2.73-.49,1.34-.85a17.83,17.83,0,0,0,1.9-1.35,23.4,23.4,0,0,0,2.41-1.59c1.2-.85,1.94-1.36,2.23-1.52l3.24-2,4.95-2.93a21.63,21.63,0,0,0,2-1.26c.94-.63,1.43-1,1.47-1l1.77-1s.22-.16.52-.37l.74-.46a2.8,2.8,0,0,1,.45-.21l1.65-.92c.21-.16.63-.44,1.29-.85a9,9,0,0,1,1.34-.74l1-.42a10.44,10.44,0,0,0,1.5-.86,11.08,11.08,0,0,1,1.43-.82l1.07-.52.43-.19a21.73,21.73,0,0,1,2.69-1.16l.49-.15a2.11,2.11,0,0,0,.64-.34,5.64,5.64,0,0,1,1.13-.55,8.62,8.62,0,0,1,2.69-1.46,13.48,13.48,0,0,1,2.44-1c1.34-.49,2.12-.77,2.32-.86.86-.4,1.46-.68,1.81-.82s1.21-.44,2.59-.89l2.26-1a7.75,7.75,0,0,1,2-.73l.55-.06.36-.18a38.34,38.34,0,0,1,4.53-1l2.26-.43.61-.12c.45,0,.71.12.79.37a4,4,0,0,0,.64.3,1.32,1.32,0,0,1,.77.73l.06.8.18.73a1.54,1.54,0,0,1-.43,1.16,2.79,2.79,0,0,1-1.89.43A2,2,0,0,1,637.67,615.29Z" transform="translate(-140.61 -387.22)"/><path d="M663.88,616.88l-2.32.92-2.69,1.28-6.35,2.32c-.17,0-.84.3-2,.77s-2.11.79-2.78,1a10.52,10.52,0,0,1-1.62.33l-2.81.31a8.82,8.82,0,0,1-1.22-.13,8.94,8.94,0,0,1-1-.18l-.31-.06c-.57,0-1.58-.69-3.05-2l-.55,2.26-.31.68-.12.3-1.22,3.61-.43.85-1,1.9-1,1.65c-.09.12-.26.39-.52.79a5.8,5.8,0,0,1-.65.86c-.08.12-.34.46-.79,1s-.71.86-.79.94a9.68,9.68,0,0,1-1.78,1.71,7,7,0,0,1-2,1.35,3.09,3.09,0,0,1-.77.3,3.06,3.06,0,0,1-.64.13l-.91.18a4.33,4.33,0,0,1-2-.37,4.58,4.58,0,0,1-1.83-2.75,3,3,0,0,1-.31-1.28,7.81,7.81,0,0,1-.18-1.35l.06-1.4.18-.86a11.1,11.1,0,0,1,.4-1.83,13.56,13.56,0,0,1,1-2.38l1.1-2.32.61-1.35,3-5.19a5,5,0,0,0,.46-.64,5,5,0,0,1,.58-.77l2-2.69a6.31,6.31,0,0,1,1.59-1.83l.91-.61,1.16-.43.74-.12a2.73,2.73,0,0,1,1.46.37l.31-.43a3.11,3.11,0,0,1,2-.55,2.78,2.78,0,0,1,1.53.52,4.15,4.15,0,0,1,1.35,1.53,3.75,3.75,0,0,1,.55,1.62l.12,1,.18,1.65s0,.24,0,.58a4.73,4.73,0,0,0,.16,1,2,2,0,0,0,.48.83,3.23,3.23,0,0,0,1.2.85,3,3,0,0,0,1.13.34h1.1a10.43,10.43,0,0,0,2.93-.25l3.11-.91a35.71,35.71,0,0,0,6.54-2.45l5.38-2.44.73-.24,1.9-1.23.24-.06c.16,0,.33-.14.49-.42.24,0,.39-.13.43-.25l.3-.24.19-.37c.24-.2.36-.37.36-.49l1-.61c.45,0,.71.12.8.37a3.55,3.55,0,0,0,.64.3,1.33,1.33,0,0,1,.76.73l.06.8.19.73a1.55,1.55,0,0,1-.46,1.13,2.71,2.71,0,0,1-1.87.46,2,2,0,0,1-1.1-.43l-.3-.06-.49.12a5,5,0,0,0-1.28.62,1.35,1.35,0,0,0-.68.3Zm-39.22,16.5.42,1.16a1.7,1.7,0,0,0,.8.31l1.16-.13a2.36,2.36,0,0,0,1.22-.61c.33-.24.67-.52,1-.82a9.32,9.32,0,0,0,1.4-1.68q1.23-1.71,1.23-1.74a.67.67,0,0,1,.06-.16l1.53-2.62c.16-.33.54-1.27,1.16-2.81l.79-2.33c.12-.36.25-.88.4-1.56s.25-1.13.33-1.37l-.12-.67-.85-.8-.74-.55s-.15.11-.33.31a5.94,5.94,0,0,1-.58.55l-.31.24a18,18,0,0,0-2.63,2.27l-.3.3L630,621l-.61.73a18.18,18.18,0,0,0-2.63,4.34,4.7,4.7,0,0,0-.3.55,8.45,8.45,0,0,0-.43,1.1c-.16.49-.28.85-.37,1.1a10.12,10.12,0,0,0-.79,2.62l-.18,1.23Z" transform="translate(-140.61 -387.22)"/><path d="M750.89,617.25l-1.53.85a15.36,15.36,0,0,0-2.32,1.32,11.78,11.78,0,0,1-1.95,1.13L742,622.44l-6.17,4.16c-.24.16-1.44,1.12-3.57,2.87S729,632.1,729,632.1c-.25.2-1.19,1-2.81,2.5s-3,2.2-4.22,2.2h-.31a7.42,7.42,0,0,1-4.15-1.65,8.22,8.22,0,0,1-2.44-3.6,8.37,8.37,0,0,1-.37-1.93,23.08,23.08,0,0,1-.19-2.72,28.86,28.86,0,0,1,.31-3.36c.2-1.5.31-2.38.31-2.63a2.25,2.25,0,0,0-.8-.12,3.27,3.27,0,0,0-1.49.58c-.64.39-1.07.64-1.32.77a11.1,11.1,0,0,0-1.19.64,7.89,7.89,0,0,0-1.25.82,7.13,7.13,0,0,1-.64.58c-.19.15-.71.5-1.56,1.07l-1.29,1c-.4.31-1.22,1.07-2.44,2.29l-2,2-1.58,1.46c-.13.09-.36.28-.71.58a6.09,6.09,0,0,1-.94.71l-1,1a11.87,11.87,0,0,1-3.06,2.45,5.91,5.91,0,0,1-2.69.67l-.67-.06a2.33,2.33,0,0,1-1.5-.8,4.4,4.4,0,0,1-1-1.58,4.73,4.73,0,0,0-.16-.86,5.93,5.93,0,0,1-.15-1.28,13.37,13.37,0,0,1,.15-1.38,13,13,0,0,0,.16-2c0-.13.09-.92.27-2.39a27.87,27.87,0,0,0,.28-3.36v-.36a5.46,5.46,0,0,0-.43-1.47,4.28,4.28,0,0,0-1,.18,12,12,0,0,0-2.57,1.47l-.42.3a7,7,0,0,0-.71.46c-.3.23-1,.87-2.1,1.93l-1.47,1.65a23,23,0,0,0-2.14,2.2c-.81.94-1.53,1.71-2.14,2.32l-1.1,1.13-1.19,1.25a10.59,10.59,0,0,1-.88.86l-.37.3a26.52,26.52,0,0,1-2.35,1.78,4,4,0,0,1-5.41-1.1,3.92,3.92,0,0,1-.58-1c-.06-.21-.11-.39-.15-.55s-.19-.51-.19-1.16a2.64,2.64,0,0,1,.16-.61,2.87,2.87,0,0,0,.15-.8,7,7,0,0,1,.06-.85,5.88,5.88,0,0,1,.27-1.13c.15-.43.24-.71.28-.83.08-.37.24-1,.49-1.74a16.8,16.8,0,0,0,.55-2.41l.36-2.57-.12-2.81a16.38,16.38,0,0,0-.73-5.07l-.25-.8a1.4,1.4,0,0,1-.3-.79,1,1,0,0,1,.21-.43l.43-.58c.14-.18.23-.29.28-.34a3.45,3.45,0,0,0,1.1-.85,6.08,6.08,0,0,1,1.58-.18,5.58,5.58,0,0,1,1.75.27,1.75,1.75,0,0,1,1.07.76,4.21,4.21,0,0,1,1.25,1.53,5.2,5.2,0,0,1,.64,2.51s0,.21.09.52a10.91,10.91,0,0,1,.15,1.22q.06.76.06,1.62l-.06,2.5-.3,2.75a11.62,11.62,0,0,1-.34,2q-.33,1.53-.33,1.59l-.13,1,.06.55a6.87,6.87,0,0,0,.86-.86,13.71,13.71,0,0,1,2-1.71L685,620a13.92,13.92,0,0,1,2.63-1.53,9,9,0,0,1,3.48-.55,2.85,2.85,0,0,1,1.5.52A4.31,4.31,0,0,1,694,620a3.87,3.87,0,0,1,.58,1.77,36.35,36.35,0,0,1-.68,6c-.08.36-.22,1-.42,1.77a8.2,8.2,0,0,0-.31,1.59l.12.3a5.15,5.15,0,0,0,.77-.09,2.7,2.7,0,0,0,1.25-.79,6.44,6.44,0,0,1,1.16-.95q.74-.55,5.07-3.67t7.33-5a50.35,50.35,0,0,1,5.62-3.11,3.44,3.44,0,0,1,.37-.22l.67-.33c.25-.12.57-.27,1-.43a9.07,9.07,0,0,1,1.38-.4,9.62,9.62,0,0,1,1.31-.18l.73,0q1.59,0,1.59,1.89l-.06.8-.37,3.3-.24,2.08-.06,2.07a4.91,4.91,0,0,0,1.4,3.61,3.26,3.26,0,0,0,2.08.67,9.23,9.23,0,0,0,3.18-.76,20.58,20.58,0,0,0,4.28-2.42l12.71-8.86.91-.49a23.7,23.7,0,0,1,2.63-1.58l3-1.59.49-.43,1.47-.86.18-.06c.16,0,.35-.14.55-.42a.63.63,0,0,0,.43-.25l.24-.24.19-.37c.2-.12.31-.21.33-.28a.66.66,0,0,0,0-.21l1-.61c.45,0,.71.12.8.37a3.55,3.55,0,0,0,.64.3,1.33,1.33,0,0,1,.76.73l.06.8.19.73a1.58,1.58,0,0,1-.43,1.16,2.84,2.84,0,0,1-1.9.43,2,2,0,0,1-1.1-.43l-.24-.06-.49.12a2.66,2.66,0,0,1-.58.19,2.08,2.08,0,0,0-.67.27.9.9,0,0,0-.28.28l-.49.18A8.56,8.56,0,0,1,750.89,617.25Z" transform="translate(-140.61 -387.22)"/><path d="M838,617.25l-1.53.85a15.36,15.36,0,0,0-2.32,1.32,11.78,11.78,0,0,1-2,1.13l-3.06,1.89-6.17,4.16q-.36.24-3.57,2.87c-2.14,1.75-3.25,2.63-3.33,2.63-.25.2-1.19,1-2.81,2.5s-3,2.2-4.22,2.2h-.31a7.42,7.42,0,0,1-4.15-1.65,8.22,8.22,0,0,1-2.44-3.6,8.37,8.37,0,0,1-.37-1.93,22.93,22.93,0,0,1-.18-2.72,28.33,28.33,0,0,1,.3-3.36c.2-1.5.31-2.38.31-2.63a2.25,2.25,0,0,0-.8-.12,3.27,3.27,0,0,0-1.49.58c-.64.39-1.07.64-1.32.77a11.1,11.1,0,0,0-1.19.64,7.89,7.89,0,0,0-1.25.82,7.13,7.13,0,0,1-.64.58c-.19.15-.71.5-1.56,1.07l-1.29,1c-.4.31-1.22,1.07-2.44,2.29l-2,2-1.58,1.46c-.13.09-.36.28-.71.58a6.09,6.09,0,0,1-.94.71l-1,1a11.87,11.87,0,0,1-3.06,2.45,5.91,5.91,0,0,1-2.69.67l-.67-.06a2.29,2.29,0,0,1-1.49-.8,4.3,4.3,0,0,1-1-1.58,4.73,4.73,0,0,0-.16-.86,5.93,5.93,0,0,1-.15-1.28,13.37,13.37,0,0,1,.15-1.38,13,13,0,0,0,.16-2c0-.13.09-.92.27-2.39a27.87,27.87,0,0,0,.28-3.36v-.36a5.46,5.46,0,0,0-.43-1.47,4.28,4.28,0,0,0-1,.18,11.77,11.77,0,0,0-2.56,1.47l-.43.3a7,7,0,0,0-.71.46c-.3.23-1,.87-2.1,1.93l-1.47,1.65a23,23,0,0,0-2.14,2.2c-.81.94-1.53,1.71-2.14,2.32l-1.1,1.13-1.19,1.25a10.59,10.59,0,0,1-.88.86l-.37.3a26.52,26.52,0,0,1-2.35,1.78,4,4,0,0,1-5.41-1.1,3.92,3.92,0,0,1-.58-1c-.06-.21-.11-.39-.15-.55s-.19-.51-.19-1.16a2.64,2.64,0,0,1,.16-.61,2.87,2.87,0,0,0,.15-.8,7,7,0,0,1,.06-.85,5.88,5.88,0,0,1,.27-1.13c.15-.43.24-.71.28-.83.08-.37.24-1,.49-1.74a16.8,16.8,0,0,0,.55-2.41l.36-2.57-.12-2.81a16.38,16.38,0,0,0-.73-5.07l-.25-.8a1.4,1.4,0,0,1-.3-.79,1,1,0,0,1,.21-.43l.43-.58c.14-.18.23-.29.28-.34a3.45,3.45,0,0,0,1.1-.85,6.08,6.08,0,0,1,1.58-.18,5.58,5.58,0,0,1,1.75.27,1.75,1.75,0,0,1,1.07.76,4.21,4.21,0,0,1,1.25,1.53,5.09,5.09,0,0,1,.64,2.51s0,.21.09.52a10.91,10.91,0,0,1,.15,1.22q.06.76.06,1.62l-.06,2.5-.3,2.75a11.62,11.62,0,0,1-.34,2q-.33,1.53-.33,1.59l-.13,1,.07.55a8.44,8.44,0,0,0,.85-.86,13.71,13.71,0,0,1,2-1.71L772,620a13.92,13.92,0,0,1,2.63-1.53,9,9,0,0,1,3.48-.55,2.85,2.85,0,0,1,1.5.52,4.31,4.31,0,0,1,1.41,1.56,3.87,3.87,0,0,1,.58,1.77,36.35,36.35,0,0,1-.68,6c-.08.36-.22,1-.42,1.77a8.2,8.2,0,0,0-.31,1.59l.12.3a5,5,0,0,0,.77-.09,2.7,2.7,0,0,0,1.25-.79,6.44,6.44,0,0,1,1.16-.95q.74-.55,5.07-3.67t7.33-5a49.56,49.56,0,0,1,5.63-3.11,2.27,2.27,0,0,1,.36-.22l.67-.33c.25-.12.57-.27,1-.43a9.07,9.07,0,0,1,1.38-.4,9.62,9.62,0,0,1,1.31-.18l.73,0q1.59,0,1.59,1.89l-.06.8-.37,3.3-.24,2.08-.06,2.07a4.91,4.91,0,0,0,1.4,3.61,3.26,3.26,0,0,0,2.08.67,9.23,9.23,0,0,0,3.18-.76,20.58,20.58,0,0,0,4.28-2.42l12.71-8.86.91-.49a23.7,23.7,0,0,1,2.63-1.58l3-1.59.49-.43,1.47-.86.18-.06c.16,0,.35-.14.55-.42a.63.63,0,0,0,.43-.25l.24-.24.19-.37c.2-.12.31-.21.33-.28a.66.66,0,0,0,0-.21l1-.61c.45,0,.71.12.8.37a3.55,3.55,0,0,0,.64.3,1.33,1.33,0,0,1,.76.73l.06.8.19.73a1.58,1.58,0,0,1-.43,1.16,2.84,2.84,0,0,1-1.9.43,2,2,0,0,1-1.1-.43l-.24-.06-.49.12a2.66,2.66,0,0,1-.58.19,2.08,2.08,0,0,0-.67.27.9.9,0,0,0-.28.28l-.49.18A8.56,8.56,0,0,1,838,617.25Z" transform="translate(-140.61 -387.22)"/><path d="M848.23,630.45l3.3-2.33c.08-.08.52-.45,1.31-1.13a15.54,15.54,0,0,1,1.8-1.37l3-1.9a3.25,3.25,0,0,0,.85-.61c3.34-2.15,5.58-3.52,6.72-4.09l2.14-1,2.2-1.1,1.65-1a.93.93,0,0,1,.25-.15c.12-.06.61-.25,1.46-.58l3.55-1.83,1.22-.49,1-.49a11.43,11.43,0,0,1,1.25-.58,2.14,2.14,0,0,1,.61-.15l1.22-.43.25-.06.48-.12a2.79,2.79,0,0,1,.95.27,2.87,2.87,0,0,0,1,.28l.12.3.12.43.06,1.22c0,.65-.42,1.16-1.28,1.53l-2.26-.12-.61-.13-.31-.06-2.56.31-1.16.37a7.69,7.69,0,0,1-1.35.76c-.65.31-1.16.56-1.53.76l-.79.49-.43.25-.18.18-1.59.79a2.52,2.52,0,0,1-.67.28,4.12,4.12,0,0,0-1.22.7l-1.35.74a17.73,17.73,0,0,0-2.87,1.34,15.56,15.56,0,0,0-2.57,1.53l-1.83,1a16.38,16.38,0,0,1-2.44,1.65l-.86.49-2,1.65a6,6,0,0,0-1.1.8,4.5,4.5,0,0,0-.92.91s-.13.06-.52.31-.82.54-1.28.88-.85.65-1.13.89a10.07,10.07,0,0,1-2.14,1.71,8.31,8.31,0,0,0-.77.7,2.72,2.72,0,0,1-.58.52l-1.59,1.07a11.43,11.43,0,0,1-2.26,1.26,6,6,0,0,1-1.46.18,3.05,3.05,0,0,1-1.71-.43,3.69,3.69,0,0,1-1.47-1.4l-.43-.74a4.92,4.92,0,0,1-.43-1,6.88,6.88,0,0,1-.18-1,3.77,3.77,0,0,1-.37-2l.07-.61q.12-3.06.36-5l.37-2.57.12-.73a8.75,8.75,0,0,1,.37-2,9.35,9.35,0,0,1,.3-2c0-.08,0-.42.13-1a19.62,19.62,0,0,1,.42-2.08,21.52,21.52,0,0,1,.68-2.17,1.65,1.65,0,0,1,.91-1.16,3.2,3.2,0,0,1,1.41-.36c.2,0,.58,0,1.13.09a2.25,2.25,0,0,1,.94.21l.92.61c.08.12.18.27.31.43a8,8,0,0,1,.61,1.4l.24,1.65a6.36,6.36,0,0,1-.09,1,7.09,7.09,0,0,1-.46,1.47c-.24.61-.39,1-.43,1s-.25.55-.51,1.16a9.38,9.38,0,0,0-.52,1.4l-.31,1.23-.61,2.2a9.05,9.05,0,0,1-.49,1.77,16.36,16.36,0,0,0-.43,4.09,2.53,2.53,0,0,0,.31,1.32,1.11,1.11,0,0,0,.85.58h.74a4.75,4.75,0,0,0,2.38-1c-.08,0,.22-.19.92-.58Zm-4.46-26a7.81,7.81,0,0,1-1.1-.92s-.26-.29-.64-.76a2.47,2.47,0,0,1-.59-1.62,1.36,1.36,0,0,1,.31-.67,2.64,2.64,0,0,0,.31-.49c.12,0,.38-.27.79-.8a7.64,7.64,0,0,1,3.24-.61c.12,0,.36.17.7.49s.52.53.52.61l.49.86.49,1,.3,1.1a1.23,1.23,0,0,1-.09.43,10,10,0,0,1-.76,1.29,3.44,3.44,0,0,1-.73.61,2.59,2.59,0,0,1-1.17.42,2.77,2.77,0,0,1-1-.27A4.33,4.33,0,0,1,843.77,604.42Z" transform="translate(-140.61 -387.22)"/><path d="M922.65,614.25l-.73-.12L921,614l-2.75.12a4.93,4.93,0,0,0-1.65.19l-.86-.07-12.09.31c-.37,0-1.53.12-3.49.37l-3,.36-2.81.31h-3.12l-.67.12-.92-.12a6.86,6.86,0,0,0-1.25.12,5.82,5.82,0,0,1-1,.12l-.73-.06a7.43,7.43,0,0,1-2,.19l-1.46.06-.49.06c-.21.12-.31.41-.31.85l-.06,1.41-.06.55c0,1,0,1.88.06,2.6a16.58,16.58,0,0,0,.21,1.92,7.61,7.61,0,0,1,.16,1.1,30,30,0,0,0,1.71,5.32l.24.61.37.49.61.18a6.3,6.3,0,0,1,1.28-1.19,2.37,2.37,0,0,1,1.35-.52,2.71,2.71,0,0,1,1,.27c.4.19.61.34.61.46a4.4,4.4,0,0,1-.8,2.51,2.32,2.32,0,0,0-.3.42,2.7,2.7,0,0,1-.37.49l-.3.31-.86,1.16a1.38,1.38,0,0,0-.34.31,2.36,2.36,0,0,1-.64.48c-.08,0-.15,0-.21.16s-.11.15-.15.15a1.59,1.59,0,0,1-1,.37l-.92-.19-.49.06a12.12,12.12,0,0,1-2.69-1.89c-.32-.33-.49-.57-.49-.73a4.12,4.12,0,0,1-.33-.4,7.39,7.39,0,0,1-.52-1.56s-.06-.37-.18-1a7.53,7.53,0,0,1-.19-1.52l-.06-1.17c-.08,0-.12-.26-.12-.67v-.36l.12-1.78-.06-2,.12-1.1v-5.62l-.18-.19.06-.79-.18-.18-1-.19h-1.35a.91.91,0,0,1-.33-.09,2.23,2.23,0,0,0-.77-.09c-.85-.25-1.28-.61-1.28-1.1l-.12-.18c0-.41.34-.68,1-.8l1.34-.18.25-.12.91-.13a1.86,1.86,0,0,0,1.1-.3v-.49l.12-.79.43-3.61a12.08,12.08,0,0,1,.28-2.32,13,13,0,0,0,.27-2.38l.25-.37q.06-.24.36-1.56a21.75,21.75,0,0,0,.43-2.23c0-.24.26-1,.64-2.26s.73-2.28,1-3.06a17.1,17.1,0,0,1,1.1-2.47,8.75,8.75,0,0,1,1.41-2.05l1.4-1.1c0-.12.18-.24.55-.36a4.33,4.33,0,0,1,1.41-.19h.91a2.31,2.31,0,0,1,1.29.25,3.12,3.12,0,0,1,1.34,1.28,3.48,3.48,0,0,1,.49,1.77v.25l-.49,1.16a19.81,19.81,0,0,1-2.05,3.27c-1.12,1.57-1.88,2.72-2.29,3.45a30.87,30.87,0,0,0-1.59,3.3l-.61,1.1a24,24,0,0,1-.73,2.38,11.69,11.69,0,0,0-1,3.24l-.67,3.67c0,.12.18.2.43.24a1.19,1.19,0,0,1,.43.12l3.48-.06,1.89.06,1.35-.06,3.85.06,2.68-.12h2.2l1.35-.06,1.59.06h1.22l1-.06.43.06,2.13-.12,1.23.06h4.46q2.07,0,3.48-.12a5.84,5.84,0,0,1,1.77-.19h.86c1.75,0,2.69-.08,2.81-.24l.67.12,1,.06.3-.12,1-.61c.45,0,.71.12.79.37a4.38,4.38,0,0,0,.65.3,1.33,1.33,0,0,1,.76.73l.06.8.18.73a1.54,1.54,0,0,1-.45,1.13,2.71,2.71,0,0,1-1.87.46,2,2,0,0,1-1.1-.43l-.3-.06C923,614.58,922.81,614.25,922.65,614.25Z" transform="translate(-140.61 -387.22)"/><path d="M964.87,614.25l-.73-.12-.92-.12-2.75.12a5,5,0,0,0-1.65.19l-.85-.07-12.1.31c-.37,0-1.53.12-3.49.37l-3,.36-2.81.31H933.4l-.67.12-.92-.12a6.86,6.86,0,0,0-1.25.12,5.82,5.82,0,0,1-1,.12l-.73-.06a7.43,7.43,0,0,1-2,.19l-1.46.06-.49.06c-.21.12-.31.41-.31.85l-.06,1.41-.06.55c0,1,0,1.88.06,2.6a14.54,14.54,0,0,0,.22,1.92,8.66,8.66,0,0,1,.15,1.1,30,30,0,0,0,1.71,5.32l.24.61.37.49.61.18a6.58,6.58,0,0,1,1.28-1.19,2.37,2.37,0,0,1,1.35-.52,2.71,2.71,0,0,1,1,.27c.4.19.61.34.61.46a4.33,4.33,0,0,1-.8,2.51,2.32,2.32,0,0,0-.3.42,2.31,2.31,0,0,1-.37.49l-.3.31-.86,1.16a1.38,1.38,0,0,0-.34.31,2.36,2.36,0,0,1-.64.48c-.08,0-.15,0-.21.16s-.11.15-.15.15a1.59,1.59,0,0,1-1,.37l-.92-.19-.49.06a12.12,12.12,0,0,1-2.69-1.89c-.32-.33-.48-.57-.48-.73a3.14,3.14,0,0,1-.34-.4,7.39,7.39,0,0,1-.52-1.56s-.06-.37-.18-1a7.53,7.53,0,0,1-.19-1.52l-.06-1.17c-.08,0-.12-.26-.12-.67v-.36l.12-1.78-.06-2,.12-1.1v-5.62l-.18-.19.06-.79-.18-.18-1-.19h-1.34a.9.9,0,0,1-.34-.09,2.2,2.2,0,0,0-.76-.09c-.86-.25-1.29-.61-1.29-1.1l-.12-.18c0-.41.35-.68,1-.8l1.34-.18.25-.12.92-.13a1.85,1.85,0,0,0,1.09-.3v-.49l.13-.79.42-3.61a12.94,12.94,0,0,1,.28-2.32,13,13,0,0,0,.27-2.38l.25-.37.37-1.56c.2-.87.34-1.62.42-2.23,0-.24.26-1,.64-2.26s.73-2.28,1-3.06a17.1,17.1,0,0,1,1.1-2.47,8.75,8.75,0,0,1,1.41-2.05l1.4-1.1c0-.12.19-.24.55-.36a4.33,4.33,0,0,1,1.41-.19h.92a2.27,2.27,0,0,1,1.28.25,3.07,3.07,0,0,1,1.34,1.28,3.48,3.48,0,0,1,.49,1.77v.25l-.49,1.16a19.52,19.52,0,0,1-2,3.27,41.38,41.38,0,0,0-2.3,3.45,33.27,33.27,0,0,0-1.58,3.3l-.62,1.1a24,24,0,0,1-.73,2.38,11.69,11.69,0,0,0-1,3.24l-.67,3.67c0,.12.18.2.43.24a1.12,1.12,0,0,1,.43.12l3.48-.06,1.89.06,1.35-.06,3.85.06,2.69-.12h2.2l1.34-.06,1.59.06h1.22l1-.06.43.06,2.14-.12,1.22.06h4.46q2.07,0,3.48-.12A5.84,5.84,0,0,1,960,612h.86c1.75,0,2.69-.08,2.81-.24l.67.12,1,.06.3-.12,1-.61c.45,0,.71.12.8.37a3.55,3.55,0,0,0,.64.3,1.3,1.3,0,0,1,.76.73l.06.8.19.73a1.55,1.55,0,0,1-.46,1.13,2.71,2.71,0,0,1-1.87.46,2,2,0,0,1-1.1-.43l-.3-.06C965.2,614.58,965,614.25,964.87,614.25Z" transform="translate(-140.61 -387.22)"/><path d="M1002.14,611.81l1-.61c.45,0,.71.12.79.37a3.87,3.87,0,0,0,.65.3,1.33,1.33,0,0,1,.76.73l.06.8.18.73a1.54,1.54,0,0,1-.45,1.13,2.71,2.71,0,0,1-1.87.46,2,2,0,0,1-1.1-.43l-.43-.18-.24-.06a6.74,6.74,0,0,1-1.1.18c-.65.08-1,.19-1.1.31a8.55,8.55,0,0,0-1.71.61c0,.08-.29.22-.86.43s-1,.38-1.4.55a2.89,2.89,0,0,0-.8.36q-.54.19-3.48,1.71l-2.57,1.35-4.82,3.11-.19.13a10,10,0,0,0-1.71,1.16,10,10,0,0,1-1.4,1l-1,.61-1.59.85-2.14,1.35-2.07,1.34c-.25.16-.68.46-1.29.89s-1.14.78-1.59,1.07a3.68,3.68,0,0,0-.39.33,10.35,10.35,0,0,1-1.5.83c-.37.32-.59.49-.67.49a2.91,2.91,0,0,0-.43.3,8.07,8.07,0,0,1-1.1.7l-1,.59a12.07,12.07,0,0,1-2.87,1.46c.08,0-.12.17-.61.4a7.44,7.44,0,0,1-1.83.52,8.58,8.58,0,0,1-2.33.24,5.59,5.59,0,0,1-2.44-.52,4.09,4.09,0,0,1-1.71-1.43,14.2,14.2,0,0,1-1-2.2,13.37,13.37,0,0,1-.37-3.73,11.73,11.73,0,0,1,.43-3l.31-1.23a14.28,14.28,0,0,1,.76-2.29,19.78,19.78,0,0,1,1.07-2.29,48.3,48.3,0,0,1,2.81-4.64,12.67,12.67,0,0,1,1.1-1.35,5.93,5.93,0,0,0,.61-.67l.25-.18a21.88,21.88,0,0,1,5-3.73,7.25,7.25,0,0,1,2.07-.85l1.16-.13.86-.06a13.4,13.4,0,0,1,1.59.15,8.25,8.25,0,0,1,2.93,1.32,4.29,4.29,0,0,1,1.53,1.71,1.91,1.91,0,0,1,.3.79v.86a4.64,4.64,0,0,1-.79,2.44c-.53.86-.82,1.33-.86,1.41a3.58,3.58,0,0,1-.3.43c-.16.2-1,1.06-2.63,2.56a9.52,9.52,0,0,1-1.59,1.22l-1.4.68a21.72,21.72,0,0,1-2.32,1,11.81,11.81,0,0,1-2.75.92c-.13,0-.69.08-1.69.25a15.13,15.13,0,0,0-1.61.3h-.55l-.19.18c-.2.37-.59,1.25-1.16,2.63l-.49,1.22a3.21,3.21,0,0,0-.24,1.16v.92a2.11,2.11,0,0,0,.37,1,2.22,2.22,0,0,0,2,.92,14.1,14.1,0,0,0,6.3-1.65,12.94,12.94,0,0,1,2.5-1l1.47-.74a38.24,38.24,0,0,1,3.36-1.83l1.65-.92,3.66-2.26q1.35-.74,3.36-2.07a24.44,24.44,0,0,1,2.69-1.65c.16-.13.43-.31.8-.55s1-.67,2-1.26,1.49-.94,1.65-1.07l3.36-1.89,2.75-1.34,2.57-.92.67-.18a17.51,17.51,0,0,1,2.69-1.16c.12,0,.32-.13.61-.37l.49-.19c0-.12.12-.27.37-.45S1002.14,611.85,1002.14,611.81Zm-30.73,3.73a1.53,1.53,0,0,0-.16-.61c-.1-.25-.47-.41-1.13-.49l-.54-.06a15.37,15.37,0,0,0-2.14.79l-1.84,1.28a14.11,14.11,0,0,0-1.77,1.59l-1.1,1-.79.67-1.22,1.41a9.66,9.66,0,0,0-1,1.34,6.5,6.5,0,0,0-.28.61l1-.06,1.71-.18,1.41-.31,1.52-.55,1.29-.85c.08,0,.28-.17.61-.4a5.52,5.52,0,0,0,.61-.46l2-1.89,1.16-1.41A3.46,3.46,0,0,0,971.41,615.54Z" transform="translate(-140.61 -387.22)"/><path d="M1034.16,616.58l.79-.43.49-.43,1.22-.67.74-.55,1.4-.86.25-.06c.12,0,.28-.14.49-.42a.63.63,0,0,0,.42-.25l.25-.24.18-.37c.2-.12.32-.21.34-.28a.66.66,0,0,0,0-.21l1-.61c.4,0,.65.12.73.37a3.65,3.65,0,0,0,.67.3,1.35,1.35,0,0,1,.8.73v.8l.18.73a1.54,1.54,0,0,1-.43,1.16,2.79,2.79,0,0,1-1.89.43,2.18,2.18,0,0,1-1.1-.43l-.25-.06-.49.12a2.66,2.66,0,0,1-.58.19,2.19,2.19,0,0,0-.67.27,1,1,0,0,0-.27.28l-.49.18a4.08,4.08,0,0,1-1.1.79l-.92.62-.67.49-.67.48a26.25,26.25,0,0,0-2.29,1.56,12,12,0,0,1-2.11,1.38l-2.87,1.77-6.48,5.07q-.12,0-3.42,3.09t-3.49,3.14l-4,3.42a9.85,9.85,0,0,1-1.4.77,7.32,7.32,0,0,1-1.47.64l-.55-.06-1.1-.06-.3-.13a3,3,0,0,1-1.32-.67c-.63-.45-.94-.75-.94-.91l-.92-1.1a3,3,0,0,1-.61-1.59v-1.1a25.7,25.7,0,0,1,.24-4.28l.25-1.83a13.86,13.86,0,0,1,.39-2.14c.27-1.14.48-2.22.65-3.24a10,10,0,0,1,.67-3.12l.24-1.09v-1.53s-.09.12-.15.36a1.81,1.81,0,0,1-.4.74,6.59,6.59,0,0,1-.73.79,4.3,4.3,0,0,0-.86,1.1,1.32,1.32,0,0,1-.3.67,1.29,1.29,0,0,0-.31.68l-.67,1.1a1.92,1.92,0,0,1-.49.94,1.94,1.94,0,0,0-.49,1c-.65,1.39-1.16,2.16-1.52,2.32a44.3,44.3,0,0,1-3.18,5.13,26.59,26.59,0,0,1-4.65,5.63,11.94,11.94,0,0,1-1.71,1.22,4.18,4.18,0,0,1-1,.64,2.55,2.55,0,0,1-.85.27,4,4,0,0,1-2.57-.73,5.3,5.3,0,0,1-1.52-2.32l-.07-1.47a8.34,8.34,0,0,1,.07-.94q.06-.53.18-1.32c.08-.53.14-.89.18-1.1a8.63,8.63,0,0,1,.64-1.68,19.64,19.64,0,0,0,.77-1.86,10.53,10.53,0,0,1,.64-1.38,9.38,9.38,0,0,0,.46-.88c1.22-1.84,2.22-3.3,3-4.4a22.4,22.4,0,0,1,2.51-3l1.28-1.34s.18-.31.67-.83a8,8,0,0,0,.8-.88,7.31,7.31,0,0,1,.64-.7,22.67,22.67,0,0,1,2-1.62,13.11,13.11,0,0,1,1.26-.89,5.38,5.38,0,0,0,.82-.58,6.87,6.87,0,0,1,1.44-.89,5,5,0,0,1,1.56-.51l.42-.13,1.59-.18h1l.73.12a1,1,0,0,1,.61.28,1.77,1.77,0,0,0,.43.27c.37-1.59.67-3.15.92-4.7a10.31,10.31,0,0,1,.21-1.13,5.1,5.1,0,0,0,.15-1.13c.09-.41.19-1.23.31-2.45l.06-.43v-.3a15.33,15.33,0,0,0,.25-2.2l.3-2,.25-1.58a18.4,18.4,0,0,0,.24-2.05,12.37,12.37,0,0,1,.43-2.54,11.12,11.12,0,0,1,.73-2l.73-.25,1.17-.06,1,.06c.49,0,1.1.49,1.84,1.47a5.12,5.12,0,0,1,1.16,2.26l.06,1.53-.19.61a12.37,12.37,0,0,1-.76,3c-.51,1.53-.8,2.48-.89,2.84l-.42,1.65-.37,2a2.43,2.43,0,0,0-.27.7c-.06.27-.1.42-.1.46l-2,6.54a9.78,9.78,0,0,1-.22,1.86,8,8,0,0,1-.51,1.8,7,7,0,0,1-.37,1.35l-1,4.52a9.67,9.67,0,0,1-.31,1.19,32.16,32.16,0,0,0-.61,3.64,16.29,16.29,0,0,0-.3,2.26c-.12,1.26-.19,2.06-.19,2.38l.13,2.08.12,1.1a5.15,5.15,0,0,0,2.32.61,7.2,7.2,0,0,0,1.35-.4,13.08,13.08,0,0,0,1.28-.52,11.31,11.31,0,0,1,1.56-1.1,24.5,24.5,0,0,0,2.29-1.65l8.92-7.21,4-2.87.92-.55a27.58,27.58,0,0,1,3-2Zm-47,14.6v.37c.08.69.43,1,1,1l1.34-.42a10.65,10.65,0,0,0,1.32-.86,7.64,7.64,0,0,0,1.31-1c0-.08.35-.44.92-1.1a20.27,20.27,0,0,0,1.59-2.07c.49-.74.91-1.45,1.28-2.14,0-.12.4-.8,1.07-2s1.11-2.08,1.31-2.56a12,12,0,0,0,1.5-2.48,13,13,0,0,0,1.25-2.54l-.18.07a.45.45,0,0,0-.34.18q-.15.18-.21.18a3.08,3.08,0,0,0-1.16.49,5,5,0,0,1-1.16.55,8,8,0,0,0-1.62.92c-1,.61-1.44,1-1.44,1.1l-1,.79a1,1,0,0,0-.49.37q-.24.3-.36.3a2.91,2.91,0,0,0-.55.68,20,20,0,0,0-1.31,1.58c-.47.62-.81,1-1,1.29a2,2,0,0,1-.46.76,1.84,1.84,0,0,0-.46.77,11.91,11.91,0,0,0-.83,1.34c-.18.37-.35.73-.51,1.1l-.62,1.59Z" transform="translate(-140.61 -387.22)"/><path d="M1109.68,614.25l-.73-.12L1108,614l-2.75.12a5,5,0,0,0-1.65.19l-.85-.07-12.1.31c-.37,0-1.53.12-3.48.37l-3.06.36-2.81.31h-3.12l-.67.12-.91-.12a6.88,6.88,0,0,0-1.26.12,5.82,5.82,0,0,1-1,.12l-.73-.06a7.43,7.43,0,0,1-2,.19l-1.46.06-.49.06c-.21.12-.31.41-.31.85l-.06,1.41-.06.55c0,1,0,1.88.06,2.6a14.54,14.54,0,0,0,.22,1.92,8.66,8.66,0,0,1,.15,1.1,30,30,0,0,0,1.71,5.32l.24.61.37.49.61.18a6.58,6.58,0,0,1,1.28-1.19,2.37,2.37,0,0,1,1.35-.52,2.71,2.71,0,0,1,1,.27c.41.19.61.34.61.46a4.33,4.33,0,0,1-.8,2.51,2.32,2.32,0,0,0-.3.42,2,2,0,0,1-.37.49l-.3.31-.86,1.16a1.22,1.22,0,0,0-.33.31,2.6,2.6,0,0,1-.65.48c-.08,0-.15,0-.21.16s-.11.15-.15.15a1.57,1.57,0,0,1-1,.37l-.92-.19-.49.06a12,12,0,0,1-2.68-1.89c-.33-.33-.49-.57-.49-.73a3.14,3.14,0,0,1-.34-.4,8.09,8.09,0,0,1-.52-1.56s-.06-.37-.18-1a8.33,8.33,0,0,1-.19-1.52l-.06-1.17c-.08,0-.12-.26-.12-.67v-.36l.12-1.78-.06-2,.12-1.1v-5.62l-.18-.19.06-.79-.18-.18-1-.19h-1.34a1,1,0,0,1-.34-.09,2.2,2.2,0,0,0-.76-.09c-.86-.25-1.29-.61-1.29-1.1l-.12-.18c0-.41.35-.68,1-.8l1.35-.18.24-.12.92-.13a1.9,1.9,0,0,0,1.1-.3v-.49l.12-.79.43-3.61a12.79,12.79,0,0,1,.27-2.32,13.12,13.12,0,0,0,.28-2.38l.24-.37.37-1.56c.2-.87.34-1.62.42-2.23,0-.24.26-1,.65-2.26s.72-2.28,1-3.06a18.27,18.27,0,0,1,1.1-2.47,8.75,8.75,0,0,1,1.41-2.05l1.4-1.1c0-.12.19-.24.55-.36a4.33,4.33,0,0,1,1.41-.19h.92a2.25,2.25,0,0,1,1.28.25,3.07,3.07,0,0,1,1.34,1.28,3.48,3.48,0,0,1,.49,1.77v.25l-.49,1.16a19.52,19.52,0,0,1-2,3.27,40.59,40.59,0,0,0-2.29,3.45,30.87,30.87,0,0,0-1.59,3.3l-.61,1.1c-.13.53-.37,1.32-.74,2.38a11.54,11.54,0,0,0-1,3.24l-.68,3.67c0,.12.19.2.43.24a1.05,1.05,0,0,1,.43.12l3.48-.06,1.89.06,1.35-.06,3.85.06,2.69-.12h2.2l1.34-.06,1.59.06h1.22l1-.06.43.06,2.14-.12,1.22.06h4.46q2.07,0,3.48-.12a5.84,5.84,0,0,1,1.77-.19h.86c1.75,0,2.69-.08,2.81-.24l.67.12,1,.06.31-.12,1-.61c.45,0,.72.12.8.37a3.55,3.55,0,0,0,.64.3,1.3,1.3,0,0,1,.76.73l.06.8.19.73a1.55,1.55,0,0,1-.46,1.13,2.71,2.71,0,0,1-1.87.46,1.92,1.92,0,0,1-1.09-.43l-.31-.06C1110,614.58,1109.84,614.25,1109.68,614.25Z" transform="translate(-140.61 -387.22)"/><path d="M1136.69,616.88l-2.32.92-2.69,1.28-6.36,2.32c-.16,0-.83.3-2,.77s-2.11.79-2.78,1a11,11,0,0,1-1.62.33l-2.82.31a8.82,8.82,0,0,1-1.22-.13,9.41,9.41,0,0,1-1-.18l-.3-.06c-.57,0-1.59-.69-3.06-2l-.55,2.26-.3.68-.12.3-1.23,3.61-.42.85-1,1.9-1,1.65-.52.79a6.74,6.74,0,0,1-.64.86c-.08.12-.35.46-.8,1s-.71.86-.79.94a9.39,9.39,0,0,1-1.77,1.71,6.94,6.94,0,0,1-2,1.35,3,3,0,0,1-.76.3,3.32,3.32,0,0,1-.64.13l-.92.18a4.26,4.26,0,0,1-2-.37,4.63,4.63,0,0,1-1.84-2.75,3.12,3.12,0,0,1-.3-1.28,7.13,7.13,0,0,1-.19-1.35l.06-1.4.19-.86a10.14,10.14,0,0,1,.4-1.83,13.49,13.49,0,0,1,.94-2.38l1.1-2.32.61-1.35,3-5.19a5.37,5.37,0,0,0,.45-.64,5,5,0,0,1,.59-.77l2-2.69a6.31,6.31,0,0,1,1.59-1.83l.92-.61,1.16-.43.73-.12a2.77,2.77,0,0,1,1.47.37l.3-.43a3.12,3.12,0,0,1,2-.55,2.78,2.78,0,0,1,1.53.52,4.13,4.13,0,0,1,1.34,1.53,3.62,3.62,0,0,1,.55,1.62l.12,1,.19,1.65s0,.24,0,.58a5.46,5.46,0,0,0,.15,1,2.1,2.1,0,0,0,.49.83,3.11,3.11,0,0,0,1.19.85,3.15,3.15,0,0,0,1.13.34h1.1a10.38,10.38,0,0,0,2.93-.25L1124,620a36.26,36.26,0,0,0,6.54-2.45l5.37-2.44.74-.24,1.89-1.23.25-.06q.24,0,.48-.42c.25,0,.39-.13.43-.25l.31-.24.18-.37c.24-.2.37-.37.37-.49l1-.61c.44,0,.71.12.79.37a3.55,3.55,0,0,0,.64.3,1.35,1.35,0,0,1,.77.73l.06.8.18.73a1.51,1.51,0,0,1-.46,1.13,2.68,2.68,0,0,1-1.86.46,1.93,1.93,0,0,1-1.1-.43l-.31-.06-.49.12a5,5,0,0,0-1.28.62,1.32,1.32,0,0,0-.67.3Zm-39.23,16.5.43,1.16a1.67,1.67,0,0,0,.79.31l1.16-.13a2.33,2.33,0,0,0,1.22-.61c.33-.24.68-.52,1-.82a9.27,9.27,0,0,0,1.41-1.68c.81-1.14,1.22-1.72,1.22-1.74a.67.67,0,0,1,.06-.16l1.53-2.62c.16-.33.55-1.27,1.16-2.81l.79-2.33a12.14,12.14,0,0,0,.4-1.56A13.89,13.89,0,0,1,1109,619l-.12-.67-.86-.8-.73-.55s-.16.11-.34.31a5,5,0,0,1-.58.55l-.31.24a17.25,17.25,0,0,0-2.62,2.27l-.31.3-.3.31-.61.73a17.86,17.86,0,0,0-2.63,4.34,4.48,4.48,0,0,0-.31.55,8.71,8.71,0,0,0-.42,1.1c-.17.49-.29.85-.37,1.1a10.09,10.09,0,0,0-.8,2.62l-.18,1.23Z" transform="translate(-140.61 -387.22)"/><path d="M1162.41,650.61a8.93,8.93,0,0,1-4.4.86h-1.59a9.7,9.7,0,0,1-3.11-.65,8.94,8.94,0,0,1-3.46-2.29,5.46,5.46,0,0,1-1.62-4q0-1.83,3.21-5a33.59,33.59,0,0,1,5.78-4.8s1.88-1.22,5.53-3.54a72,72,0,0,1,9.86-5.38l-2.68-.18-2.14.24h-2.08q-4.1-.06-6.08-1.92a5.71,5.71,0,0,1-2-4.25q0-2.51,3.09-5.25a42.89,42.89,0,0,1,9.2-5.81c.73-.4,2.35-1.23,4.85-2.47a65.81,65.81,0,0,1,6.27-2.78,12.92,12.92,0,0,1,4.46-.73l1.22.06a4.28,4.28,0,0,1,2.57,1.31,3.43,3.43,0,0,1,1.22,2.41,7.87,7.87,0,0,1-.37,2.29,3.39,3.39,0,0,1-1.07,1.75,2.36,2.36,0,0,1-1.43.55l-2.57-.06a13.73,13.73,0,0,0-3.12.42q-1.77.43-5.62,1.71a69.47,69.47,0,0,0-6.69,3.21q-5,2.6-5,3.33c0,.16.38.34,1.13.52a9.83,9.83,0,0,0,2.29.28h3c.24,0,1-.06,2.41-.19s2.43-.18,3.21-.18c3.66,0,5.5,1.12,5.5,3.36a6,6,0,0,1-.06.76,7,7,0,0,1-.55,1.56,12.42,12.42,0,0,0-4.25,1.59,78.64,78.64,0,0,0-8.52,5.29,73.38,73.38,0,0,0-9.11,7.24c-2.48,2.36-3.73,4-3.73,5.07a1,1,0,0,0,.52.85,2.94,2.94,0,0,0,1.5.31,16.29,16.29,0,0,0,4.67-1.44,94,94,0,0,0,9.45-4.73,5.12,5.12,0,0,0,1.34-.68c.49-.32,1.12-.69,1.89-1.09l3.73-2,4.4-2.69,3.54-2a16,16,0,0,0,2.45-1.47,27.41,27.41,0,0,0,2.44-1.71,17.42,17.42,0,0,1,3.49-2.26,77.9,77.9,0,0,1,9.16-5.2c.37-.16,1.12-.57,2.26-1.22a19.81,19.81,0,0,1,2.69-1.34,13.48,13.48,0,0,1,2.47-1c1.37-.49,2.13-.77,2.3-.86l.55-.24,2.13-.86.19-.06,1.53-.55a1,1,0,0,0,.27-.09l2.44-.89a13.67,13.67,0,0,0,2.42-1,37.59,37.59,0,0,1,4.52-1l2.26-.43.61-.12c.45,0,.71.12.8.37.08,0,.31.13.7.27a1,1,0,0,1,.7.76l.06.8.19.79c0,1-.68,1.53-2,1.53a2.38,2.38,0,0,1-1.41-.43,2.29,2.29,0,0,0-2-1.34l-.43.06q-2.5.56-4.95,1.25t-7.51,2.66l-4.1,1.59a4.44,4.44,0,0,0-.64.27c-.39.19-.68.32-.89.4a1.38,1.38,0,0,1-.42.12l-2,1a20.21,20.21,0,0,1-2,1.1l-1.71.86q-1.34.86-4.4,2.38l-.36.18a9.38,9.38,0,0,1-1.65,1.26c-.9.59-1.57,1.07-2,1.43l-3.85,2.87-3.91,2.39-.67.61c-.37.32-.78.66-1.25,1a18.78,18.78,0,0,1-1.93,1.19,9.94,9.94,0,0,1-.91.79c-.37.29-1.41.92-3.12,1.9l-2.63,1.77q-1.83,1.39-2,1.53l-.34.18a10.31,10.31,0,0,0-1.35.92,10.34,10.34,0,0,1-1.22.85l-1.52,1.22c-.29.17-1,.6-2.08,1.32s-2.13,1.34-3.09,1.89S1163.39,650.08,1162.41,650.61Z" transform="translate(-140.61 -387.22)"/><path d="M1296.16,614.13l1-.43.49-.12c.16,0,.32-.14.49-.42.24,0,.38-.13.43-.25l.3-.24.18-.37c.25-.2.37-.37.37-.49l1-.61c.45,0,.71.12.79.37a4,4,0,0,0,.64.3,1.32,1.32,0,0,1,.77.73l.06.8.18.73a1.51,1.51,0,0,1-.46,1.13,2.66,2.66,0,0,1-1.86.46,2,2,0,0,1-1.1-.43l-.3-.06-.49.12a4.27,4.27,0,0,0-1.71.74l-.62.24-1.71.92a1.47,1.47,0,0,0-.73.37l-.46.15a16.61,16.61,0,0,0-1.74.94,5.49,5.49,0,0,1-1.59.8l-2.62,1.22a26.08,26.08,0,0,0-2.27,1.35l-2.87,1.64c-.89.7-1.54,1.17-1.92,1.41s-.77.47-1.13.67l-2.81,1.59-.68.31-.61.42a7.83,7.83,0,0,1-2.2,1.35l-1,.49a2.76,2.76,0,0,1-1,.61,2.33,2.33,0,0,0-.71.49c-.26.24-.44.36-.52.36l-1.13.83a4.53,4.53,0,0,1-1.25.76l-2.93,2a2.88,2.88,0,0,1-1.16.49l-1.59,1a5.75,5.75,0,0,0-1.07.48,3.51,3.51,0,0,1-1.5.49.84.84,0,0,1-.61-.24,1.15,1.15,0,0,1-.82-.52,1.6,1.6,0,0,0-.65-.58l-.06-.18c-.2,0-.3-.13-.3-.25l-.31-.3-.24-.13-.55-.55a6.4,6.4,0,0,0-1.83-1.34l-.37-.18a10.47,10.47,0,0,1-1-.52c-.45-.27-1.14-.71-2.08-1.35s-1.71-1.13-2.32-1.49l-2.14-1.23-1.37-.67a15.27,15.27,0,0,1-1.93-1.1l-1.65-1.16-1.71-.92c-.32,0-.51-.12-.55-.36l-.39.24a3,3,0,0,0-.71.86l-.55.49-1,1.1c-.41.44-.8.85-1.17,1.22l-1.16,1.28-1.65,1.9-1.1,1.16a24.38,24.38,0,0,1-2,2,7.3,7.3,0,0,1-2,1.44l-.31.3a2.66,2.66,0,0,0-.64.62c-.26.32-.48.48-.64.48h-.73a2.11,2.11,0,0,1-1.13-.36,1.45,1.45,0,0,1-.7-.92l-.25-.49a1.52,1.52,0,0,1,.55-1l1-1,.73-.37,1.77-1.34a10.64,10.64,0,0,1,1.72-1.35l1.1-.85a15.51,15.51,0,0,0,2.5-2.2l1.41-1.35c.85-.81,1.54-1.52,2.07-2.14l.46-.42.55-.52c.1-.1.13-.16.09-.16s-.2-.08-.24-.24a1.84,1.84,0,0,1-.06-.31l-.43-.3-.49-.49-2.38-2.08-.25-.18a4.85,4.85,0,0,0-1.8-1,7.68,7.68,0,0,1-1.74-.76l-1.22-1-.37-1.71.37-1.83a1.18,1.18,0,0,1,.24-.55,2.13,2.13,0,0,0,.25-.43l.79-1a4.72,4.72,0,0,1,3.85-1.71h1.35a7.08,7.08,0,0,1,2.19.37c1.35.48,2,1.28,2,2.38l.06.43.61,2.07.49.86a8.13,8.13,0,0,0,1,1.89c0,.21.26.58.79,1.1l.55-.61,1.53-1.34q2.38-2.26,3.64-3.36c.83-.74,1.72-1.45,2.66-2.14a3,3,0,0,0,1-.8l.8-1.22a2.87,2.87,0,0,1,2.08-.67c.93.53,1.4,1,1.4,1.53l.49.55.12.67a1.56,1.56,0,0,1-1.16,1.53,3.28,3.28,0,0,1-1.59.43l-.43.06a1.57,1.57,0,0,1-.61-.16q-.36-.15-.42-.33l-.49.3-.49.25a2,2,0,0,0-.61.43,3.72,3.72,0,0,0-.43.48l-.43.37-.67.55a12,12,0,0,0-1.9,1.77l-.61.74-.55.42-1.65,1.47a2.29,2.29,0,0,1-.73.55c0,.12.2.42.61.89a4,4,0,0,0,.86.82c.24.21.64.6,1.19,1.19a12.53,12.53,0,0,0,1.31,1.26l.61.48,1,.74,1.47,1a6.62,6.62,0,0,0,.61.39,5.06,5.06,0,0,1,.92.77l2.56,1.83,2.39,1.16a8.71,8.71,0,0,1,1.22.86,5.8,5.8,0,0,1,1.31.67,2.8,2.8,0,0,0,1.56.42l.92-.06,4-1.46a1.45,1.45,0,0,1,1-.49q.06-.12,4.09-1.9l1.77-.85,3-1.83a10.91,10.91,0,0,0,1.56-1,13.64,13.64,0,0,1,1.37-.92l3.79-2.14,2-1.34a13.51,13.51,0,0,1,1.68-.92l.37-.18a14.62,14.62,0,0,0,2.2-1.28l1.28-.8.62-.43.48-.24a16.2,16.2,0,0,0,2-1l2.81-1.22h.25Z" transform="translate(-140.61 -387.22)"/><path d="M1332.82,612.6l.19-.3c.24-.2.36-.37.36-.49l1-.61c.45,0,.71.12.8.37a3.55,3.55,0,0,0,.64.3,1.33,1.33,0,0,1,.76.73l.06.8.19.73a1.55,1.55,0,0,1-.46,1.13,2.71,2.71,0,0,1-1.87.46,2.51,2.51,0,0,1-1.1-.43l-.48-.24a7,7,0,0,1-1.1.18c-.66.08-1,.19-1.1.31l-.49.18-1.47.61-1.89.92a31.38,31.38,0,0,0-4.28,2l-2.81,1.17-4.22,2.2c-2.77,1.63-4.52,2.6-5.25,2.93l-3.67,1.83a1.4,1.4,0,0,1-.64.31,2.26,2.26,0,0,0-.64.24c-.45.25-1.18.68-2.2,1.31s-1.86,1.12-2.51,1.44l-2.1,1.19c-1,.59-1.89,1-2.54,1.32l-.92.42a15.55,15.55,0,0,1-2,1l-1.65.8a44.76,44.76,0,0,1-4.58,2.44,6.82,6.82,0,0,1-2.57.61,7.88,7.88,0,0,1-3.42-.64,2.81,2.81,0,0,1-1.65-2l-.37-2.69a12.07,12.07,0,0,1,.73-4,14.35,14.35,0,0,1,1.9-3.39,33.92,33.92,0,0,1,6.54-7.51q.3-.24,2-1.71a29.94,29.94,0,0,1,2.45-2c.44-.28,1.13-.78,2-1.5a32,32,0,0,1,3.64-2.35l3.17-1.46c1.63-.62,2.56-.95,2.79-1a7.47,7.47,0,0,1,.82-.16l2.32-.61,1.71-.3.86-.19h.61a1.33,1.33,0,0,1,.52.19l.46.24a3.19,3.19,0,0,1,.73,1.29v2.13s-.07.14-.09.4a.84.84,0,0,1-.34.64c0,.29-.22.64-.67,1.07a1.86,1.86,0,0,1-1.1.64,2.92,2.92,0,0,0-.92.16,3.09,3.09,0,0,1-.91.15l-1.84.12-.73.12-1.1.31-1.13.18a5.53,5.53,0,0,0-1.43.43c-.25.12-.94.39-2.08.79a12.39,12.39,0,0,0-2.26,1l-4.1,2.63a26.93,26.93,0,0,0-2.69,2.5l-2.07,2a6.32,6.32,0,0,1-.74.79,10.4,10.4,0,0,0-1,1.1c-.66.9-1.37,2-2.14,3.24a5.56,5.56,0,0,0-.55,1.35c-.21.65-.33,1.06-.37,1.22l-.06.73c0,.82.45,1.22,1.34,1.22l2.2-.12a4.48,4.48,0,0,0,1.44-.36c.63-.25,1.07-.41,1.31-.49a4.56,4.56,0,0,0,.83-.28,10.82,10.82,0,0,0,1.07-.46,9.4,9.4,0,0,1,1.31-.64,7.2,7.2,0,0,1,1.07-.4l1.41-.55,4.46-1.77,1.59-.61c.28-.12,1.31-.66,3.08-1.62s2.86-1.52,3.27-1.68l.79-.4q.55-.27,3.15-1.86t6-3.48a9.73,9.73,0,0,1,1.16-.52c.73-.31,1.26-.54,1.59-.7l2.93-1.41a20.87,20.87,0,0,0,2-.85l1.22-.43,2.63-1.1a11.48,11.48,0,0,1,2-.73l.68-.37Z" transform="translate(-140.61 -387.22)"/><path d="M1368.63,611.81l1-.61c.44,0,.71.12.79.37a3.55,3.55,0,0,0,.64.3,1.35,1.35,0,0,1,.77.73l.06.8.18.73a1.51,1.51,0,0,1-.46,1.13,2.68,2.68,0,0,1-1.86.46,2,2,0,0,1-1.1-.43l-.43-.18-.24-.06a7,7,0,0,1-1.1.18c-.66.08-1,.19-1.1.31a8.12,8.12,0,0,0-1.71.61c0,.08-.29.22-.86.43s-1,.38-1.4.55a2.89,2.89,0,0,0-.8.36q-.56.19-3.48,1.71l-2.57,1.35-4.82,3.11-.19.13a9.22,9.22,0,0,0-1.71,1.16,11.31,11.31,0,0,1-1.4,1l-1,.61-1.59.85-2.14,1.35-2.08,1.34-1.28.89c-.61.42-1.14.78-1.59,1.07-.16.12-.29.23-.4.33a10.58,10.58,0,0,1-1.49.83c-.37.32-.59.49-.67.49a2.46,2.46,0,0,0-.43.3,8.79,8.79,0,0,1-1.1.7l-1,.59a12.28,12.28,0,0,1-2.87,1.46c.08,0-.13.17-.61.4a7.4,7.4,0,0,1-1.84.52,8.5,8.5,0,0,1-2.32.24,5.56,5.56,0,0,1-2.44-.52,4,4,0,0,1-1.71-1.43,13.34,13.34,0,0,1-1-2.2,13,13,0,0,1-.37-3.73,11.3,11.3,0,0,1,.43-3l.3-1.23a15.64,15.64,0,0,1,.77-2.29,18.23,18.23,0,0,1,1.07-2.29,46.31,46.31,0,0,1,2.81-4.64,12.67,12.67,0,0,1,1.1-1.35,7.11,7.11,0,0,0,.61-.67l.24-.18a22.34,22.34,0,0,1,4.95-3.73,7.31,7.31,0,0,1,2.08-.85l1.16-.13.86-.06a13.28,13.28,0,0,1,1.58.15,8.28,8.28,0,0,1,2.94,1.32,4.29,4.29,0,0,1,1.53,1.71,1.91,1.91,0,0,1,.3.79v.86a4.64,4.64,0,0,1-.79,2.44c-.53.86-.82,1.33-.86,1.41a3.58,3.58,0,0,1-.3.43c-.17.2-1,1.06-2.63,2.56a9.52,9.52,0,0,1-1.59,1.22l-1.41.68a20.81,20.81,0,0,1-2.32,1,11.65,11.65,0,0,1-2.75.92c-.12,0-.68.08-1.68.25a15,15,0,0,0-1.62.3h-.55l-.18.18c-.2.37-.59,1.25-1.16,2.63l-.49,1.22a3.24,3.24,0,0,0-.25,1.16v.92a2.36,2.36,0,0,0,.37,1,2.25,2.25,0,0,0,2,.92,14.09,14.09,0,0,0,6.29-1.65,13.14,13.14,0,0,1,2.51-1l1.46-.74a38.24,38.24,0,0,1,3.36-1.83l1.65-.92,3.67-2.26q1.35-.74,3.36-2.07a23.5,23.5,0,0,1,2.69-1.65c.16-.13.43-.31.79-.55s1-.67,2-1.26,1.49-.94,1.65-1.07l3.36-1.89,2.75-1.34,2.57-.92.67-.18a17.05,17.05,0,0,1,2.69-1.16c.12,0,.32-.13.61-.37l.49-.19q0-.18.36-.45C1368.51,612,1368.63,611.85,1368.63,611.81Zm-30.74,3.73a1.68,1.68,0,0,0-.15-.61c-.1-.25-.48-.41-1.13-.49l-.55-.06a15.89,15.89,0,0,0-2.14.79l-1.83,1.28a14.11,14.11,0,0,0-1.77,1.59l-1.1,1-.8.67-1.22,1.41a10.63,10.63,0,0,0-1,1.34c-.1.21-.19.41-.27.61l1-.06,1.71-.18,1.4-.31,1.53-.55,1.28-.85a5.87,5.87,0,0,0,.61-.4,4.64,4.64,0,0,0,.61-.46l2-1.89,1.16-1.41A3.44,3.44,0,0,0,1337.89,615.54Z" transform="translate(-140.61 -387.22)"/><path d="M1381.22,626.6l6.11-5.07,3-2.08,1.16-1,.73-.49,2.33-1.59,1.22-.67.18-.18,1.35-.74.67-.49a3.37,3.37,0,0,0,1.25-.91,4.88,4.88,0,0,1,1.19-1,2.06,2.06,0,0,1,.74-.82,2.54,2.54,0,0,0,.55-.46,1.94,1.94,0,0,1,1-.25,2.22,2.22,0,0,1,1.23.37l.54.24a1.23,1.23,0,0,1,.62.86,1.17,1.17,0,0,1,.12.61v.25a1.21,1.21,0,0,1,.18.73,3.26,3.26,0,0,1-.21,1c-.15.4-.24.65-.28.73a1.56,1.56,0,0,1-1,.67l-.3.06-.67-.06a1.8,1.8,0,0,1-1.16-.67,1,1,0,0,1-.49-.31c-.17-.16-.29-.24-.37-.24a3.32,3.32,0,0,0-1.28.73l-.68.43-1,.61-1,.61-.68.49a11.69,11.69,0,0,0-2,1.34,7.15,7.15,0,0,1-1.77,1.17l-2.51,1.58-5.74,4.53a45.32,45.32,0,0,0-5.32,4.76c-.24.33-.62.78-1.13,1.35s-.82.85-1,.85a11.61,11.61,0,0,1-2.5,2.81,9.69,9.69,0,0,1-2,1.93,5.38,5.38,0,0,1-2.35,1.13l-2.26-.06a6.45,6.45,0,0,1-1-.09,4.92,4.92,0,0,1-1.8-1.07l-.55-.55-1.41-2.08a3.71,3.71,0,0,0-.33-1.19,7.67,7.67,0,0,1-.49-1.75,12.06,12.06,0,0,1-.15-2,23.9,23.9,0,0,1,.36-4.09l.43-2.2-.06-.43,1.34-8.19c.17-.08.45-1.32.86-3.73v-.79l.3-1.28a3.52,3.52,0,0,1,.1-.61c.06-.29.13-.43.21-.43l.18-1.35c.13-.49.31-1.38.55-2.68a40.86,40.86,0,0,0,1-4c0-.2.27-.85.67-2a13.56,13.56,0,0,0,.74-2.57l1.1-2.81a18.94,18.94,0,0,1,.76-2,27.87,27.87,0,0,1,1.37-2.84,11.92,11.92,0,0,1,.83-.91,10.45,10.45,0,0,1,2-1.53,4.22,4.22,0,0,1,2.16-.8l2.08.25a4.14,4.14,0,0,1,2.75,3.12,3.07,3.07,0,0,1,.25,1.58V591a3,3,0,0,1,0,.43c0,.21-.09.59-.21,1.16a9.61,9.61,0,0,0-.18,1l-.31,1.16-.79,2.2a5.33,5.33,0,0,0-1,1.65l-.79,1.59-1,1.71a29.79,29.79,0,0,0-2.29,2.9,36.7,36.7,0,0,1-2.42,3.09c-.53.57-.91.85-1.16.85a12.19,12.19,0,0,1-.49,1.5c-.32.92-.53,1.54-.61,1.86a18.72,18.72,0,0,1-.33,2.05c-.15.63-.38,1.44-.71,2.42l-.61,2.07.06.31-.24,1.16v.49l-.55,2.63-.24,1.4-.25,2.38.12,2.08.13,1.65.24,2a2.24,2.24,0,0,0,.09.52,14.2,14.2,0,0,0,.83,1.74l.12.24c.36.82.85,1.22,1.47,1.22s1.43-.73,2.71-2.07,2.23-2.3,2.84-2.88l.19-.24Q1380,627.52,1381.22,626.6Zm-8-23.1-.24,1.71a14.51,14.51,0,0,1,1.4-1.89s.29-.37.74-1.22a5.87,5.87,0,0,1,.91-1.47,5.13,5.13,0,0,1,.61-1.19,5.75,5.75,0,0,0,.61-1.13l.49-.8.43-1.1a1.4,1.4,0,0,0,.43-.67c0,.08,0-.09.09-.52s.22-.9.37-1.43a4.38,4.38,0,0,1,.27-.86l.31-1.41-.06-1.89a1.31,1.31,0,0,0-.34-.73.88.88,0,0,0-.64-.43l-.19.06c-.16,0-.39.27-.7.67a4.59,4.59,0,0,0-.7,1.77,4,4,0,0,0-.61,1.53c-.12.61-.42,1.66-.89,3.15s-.72,2.33-.76,2.54a4.67,4.67,0,0,1-.25.67,4.58,4.58,0,0,0-.3,1l-.06.3a3.24,3.24,0,0,0-.49,1.71l-.31,1.41Z" transform="translate(-140.61 -387.22)"/><path d="M1414.52,626.6l6.11-5.07,3-2.08,1.16-1,.73-.49,2.33-1.59,1.22-.67.18-.18,1.35-.74.67-.49a3.37,3.37,0,0,0,1.25-.91,4.88,4.88,0,0,1,1.19-1,2.06,2.06,0,0,1,.74-.82,2.54,2.54,0,0,0,.55-.46,1.94,1.94,0,0,1,1-.25,2.22,2.22,0,0,1,1.23.37l.55.24a1.25,1.25,0,0,1,.61.86,1.17,1.17,0,0,1,.12.61v.25a1.21,1.21,0,0,1,.18.73,3.26,3.26,0,0,1-.21,1c-.14.4-.24.65-.28.73a1.56,1.56,0,0,1-1,.67l-.3.06-.67-.06a1.8,1.8,0,0,1-1.16-.67,1,1,0,0,1-.49-.31c-.17-.16-.29-.24-.37-.24a3.32,3.32,0,0,0-1.28.73l-.68.43-1,.61-1,.61-.68.49a11.69,11.69,0,0,0-2,1.34,7.15,7.15,0,0,1-1.77,1.17l-2.51,1.58-5.74,4.53a45.32,45.32,0,0,0-5.32,4.76c-.24.33-.62.78-1.13,1.35s-.82.85-1,.85a11.61,11.61,0,0,1-2.5,2.81,9.69,9.69,0,0,1-2,1.93,5.38,5.38,0,0,1-2.35,1.13l-2.26-.06a6.45,6.45,0,0,1-.95-.09,4.92,4.92,0,0,1-1.8-1.07l-.55-.55-1.41-2.08a3.71,3.71,0,0,0-.33-1.19,7.67,7.67,0,0,1-.49-1.75,12.06,12.06,0,0,1-.15-2,23.9,23.9,0,0,1,.36-4.09l.43-2.2-.06-.43,1.34-8.19c.17-.08.45-1.32.86-3.73v-.79l.31-1.28a3.27,3.27,0,0,1,.09-.61c.06-.29.13-.43.21-.43l.18-1.35c.13-.49.31-1.38.55-2.68a40.86,40.86,0,0,0,1-4c0-.2.27-.85.67-2a12.84,12.84,0,0,0,.74-2.57l1.1-2.81a18.94,18.94,0,0,1,.76-2,25.91,25.91,0,0,1,1.38-2.84,9.2,9.2,0,0,1,.82-.91,10.45,10.45,0,0,1,2-1.53,4.22,4.22,0,0,1,2.16-.8l2.08.25a4.14,4.14,0,0,1,2.75,3.12,3.07,3.07,0,0,1,.25,1.58V591c0,.09,0,.23,0,.43s-.1.59-.22,1.16a9.61,9.61,0,0,0-.18,1l-.31,1.16-.79,2.2a5.33,5.33,0,0,0-1,1.65l-.79,1.59-1,1.71a29.79,29.79,0,0,0-2.29,2.9,36.7,36.7,0,0,1-2.42,3.09c-.53.57-.91.85-1.16.85a12.19,12.19,0,0,1-.49,1.5c-.32.92-.53,1.54-.61,1.86a18.72,18.72,0,0,1-.33,2.05c-.15.63-.38,1.44-.71,2.42l-.61,2.07.06.31-.24,1.16v.49l-.55,2.63-.24,1.4L1401,627l.12,2.08.13,1.65.24,2a2.24,2.24,0,0,0,.09.52,14.2,14.2,0,0,0,.83,1.74l.12.24c.37.82.85,1.22,1.47,1.22s1.43-.73,2.71-2.07,2.24-2.3,2.85-2.88l.18-.24Q1413.35,627.52,1414.52,626.6Zm-8-23.1-.24,1.71a14.51,14.51,0,0,1,1.4-1.89s.29-.37.74-1.22a5.87,5.87,0,0,1,.91-1.47,5.13,5.13,0,0,1,.61-1.19,6.6,6.6,0,0,0,.62-1.13l.48-.8.43-1.1a1.32,1.32,0,0,0,.43-.67c0,.08,0-.09.09-.52s.22-.9.37-1.43a4.38,4.38,0,0,1,.27-.86l.31-1.41-.06-1.89a1.31,1.31,0,0,0-.34-.73.88.88,0,0,0-.64-.43l-.18.06c-.17,0-.4.27-.71.67a4.59,4.59,0,0,0-.7,1.77,4,4,0,0,0-.61,1.53c-.12.61-.42,1.66-.89,3.15s-.72,2.33-.76,2.54a4.67,4.67,0,0,1-.25.67,4.58,4.58,0,0,0-.3,1l-.06.3a3.24,3.24,0,0,0-.49,1.71l-.31,1.41Z" transform="translate(-140.61 -387.22)"/><path d="M1471.71,611.81l1-.61c.44,0,.71.12.79.37a3.55,3.55,0,0,0,.64.3,1.35,1.35,0,0,1,.77.73l.06.8.18.73a1.51,1.51,0,0,1-.46,1.13,2.68,2.68,0,0,1-1.86.46,1.93,1.93,0,0,1-1.1-.43l-.43-.18-.24-.06a7,7,0,0,1-1.1.18c-.66.08-1,.19-1.1.31a8.12,8.12,0,0,0-1.71.61c0,.08-.29.22-.86.43s-1,.38-1.41.55a2.83,2.83,0,0,0-.79.36q-.55.19-3.48,1.71l-2.57,1.35-4.83,3.11-.18.13a9.22,9.22,0,0,0-1.71,1.16,10.73,10.73,0,0,1-1.41,1c-.53.32-.85.53-1,.61l-1.59.85-2.14,1.35-2.08,1.34-1.28.89c-.61.42-1.14.78-1.59,1.07a3.91,3.91,0,0,0-.4.33,10.58,10.58,0,0,1-1.49.83,2.25,2.25,0,0,1-.68.49,3,3,0,0,0-.42.3,9.63,9.63,0,0,1-1.1.7l-1,.59a12.28,12.28,0,0,1-2.87,1.46c.08,0-.13.17-.62.4a7.19,7.19,0,0,1-1.83.52,8.5,8.5,0,0,1-2.32.24,5.56,5.56,0,0,1-2.44-.52,4.06,4.06,0,0,1-1.72-1.43,14.23,14.23,0,0,1-1-2.2,13,13,0,0,1-.37-3.73,11.3,11.3,0,0,1,.43-3l.3-1.23a14.51,14.51,0,0,1,.77-2.29,18.23,18.23,0,0,1,1.07-2.29,46.31,46.31,0,0,1,2.81-4.64,11.53,11.53,0,0,1,1.1-1.35,7.11,7.11,0,0,0,.61-.67l.24-.18a22.34,22.34,0,0,1,5-3.73,7.31,7.31,0,0,1,2.08-.85l1.16-.13.85-.06a13.23,13.23,0,0,1,1.59.15,8.28,8.28,0,0,1,2.94,1.32,4.2,4.2,0,0,1,1.52,1.71,1.8,1.8,0,0,1,.31.79v.86a4.73,4.73,0,0,1-.79,2.44c-.53.86-.82,1.33-.86,1.41a3,3,0,0,1-.31.43c-.16.2-1,1.06-2.62,2.56a9.52,9.52,0,0,1-1.59,1.22l-1.41.68a20.81,20.81,0,0,1-2.32,1,11.65,11.65,0,0,1-2.75.92c-.12,0-.68.08-1.68.25a15,15,0,0,0-1.62.3h-.55l-.18.18c-.21.37-.59,1.25-1.16,2.63l-.49,1.22a3.24,3.24,0,0,0-.25,1.16v.92a2.36,2.36,0,0,0,.37,1,2.25,2.25,0,0,0,2,.92,14.09,14.09,0,0,0,6.29-1.65,13.14,13.14,0,0,1,2.51-1l1.46-.74a38.24,38.24,0,0,1,3.36-1.83l1.65-.92,3.67-2.26c.89-.49,2-1.18,3.36-2.07a23.5,23.5,0,0,1,2.69-1.65c.16-.13.43-.31.79-.55s1-.67,2-1.26,1.48-.94,1.65-1.07l3.36-1.89,2.75-1.34,2.56-.92.68-.18a17.67,17.67,0,0,1,2.68-1.16c.13,0,.33-.13.62-.37l.48-.19c0-.12.13-.27.37-.45S1471.71,611.85,1471.71,611.81ZM1441,615.54a1.68,1.68,0,0,0-.15-.61c-.1-.25-.48-.41-1.13-.49l-.55-.06a15.89,15.89,0,0,0-2.14.79l-1.83,1.28a14.11,14.11,0,0,0-1.77,1.59l-1.1,1-.8.67-1.22,1.41a10.63,10.63,0,0,0-1,1.34c-.1.21-.19.41-.27.61l1-.06,1.72-.18,1.4-.31,1.53-.55,1.28-.85a5.87,5.87,0,0,0,.61-.4,4.64,4.64,0,0,0,.61-.46l2-1.89,1.16-1.41A3.44,3.44,0,0,0,1441,615.54Z" transform="translate(-140.61 -387.22)"/><path d="M1526,617.06l-1.84,1a15.36,15.36,0,0,0-2.32,1.32,11.78,11.78,0,0,1-2,1.13l-3.12,1.89-6.11,4.16a4.76,4.76,0,0,0-.79.58l-2.23,1.77c-1,.79-2.3,1.84-3.88,3.15-.45.36-.94.79-1.47,1.28s-2.08,1.61-4.64,3.36a2.64,2.64,0,0,1-1,.24,3.88,3.88,0,0,1-2.26-.82,4.79,4.79,0,0,1-1.72-2.26,10.64,10.64,0,0,1-.67-2.84l-.18-2.75.18-3.18-.43-4.09a1.21,1.21,0,0,0-.48-.65,1.3,1.3,0,0,0-.74-.33c-1.3,0-3.2,1.08-5.68,3.24a8.69,8.69,0,0,1-.92.91c-.45.41-.85.8-1.22,1.17s-.7.69-1,1a3.83,3.83,0,0,0-.52.55c-.53.53-1,1-1.34,1.47s-.79,1-1.28,1.65c-.09.08-.36.41-.83,1a22.5,22.5,0,0,0-1.43,2,9.09,9.09,0,0,0-.68.92,7.75,7.75,0,0,0-.79,1.4,15.09,15.09,0,0,0-1.28,1.62,21,21,0,0,1-1.41,1.81q-2.45,2.81-4,2.81a3.24,3.24,0,0,1-1.83-.77,10.47,10.47,0,0,1-1.59-1.37,3.46,3.46,0,0,1-.61-1.41l.12-1.16.3-2.38.55-2.2c.29-.82.69-1.83,1.19-3.06a12.6,12.6,0,0,0,.89-2.68,26,26,0,0,1,.7-2.51,15.57,15.57,0,0,0,.68-2.78c.06-.63.09-1.05.09-1.25l-.12-2.14L1468,616a1.44,1.44,0,0,1-.24-.52,1.23,1.23,0,0,0-.37-.58.81.81,0,0,1-.3-.43l.06-.31.3-.49a1.48,1.48,0,0,1,.58-.76c.31-.22.46-.36.46-.4.2-.2.55-.51,1-.91a2.75,2.75,0,0,1,1.83-.61,6.67,6.67,0,0,1,2.45.61,2.28,2.28,0,0,1,1.25,1.31,7.14,7.14,0,0,1,.27,2.17,4.18,4.18,0,0,1-.15,1,3.88,3.88,0,0,0-.15.88l-.74,3.91-.61,3.67q-.12.86-.27,1.56c-.1.47-.2,1.07-.28,1.8a10.08,10.08,0,0,1-.39,1.65,9,9,0,0,0-.4,1.71c.16,0,.61-.32,1.34-1a32.8,32.8,0,0,0,2.45-2.44l7.45-7.76a26.69,26.69,0,0,1,1.93-1.86c.71-.63,2.17-1.75,4.37-3.33a6.24,6.24,0,0,1,1.37-.74,8.63,8.63,0,0,1,3-.36,2.82,2.82,0,0,1,2.48,1.83,10.71,10.71,0,0,1,1,4.89l-.13,1.89a45.77,45.77,0,0,1-.3,5.07,2.5,2.5,0,0,0,.52,1.19,4.15,4.15,0,0,0,1.37,1.17,3.39,3.39,0,0,0,1.59.51,4.25,4.25,0,0,0,1.83-.55,13.91,13.91,0,0,1,1.59-1,23,23,0,0,0,2.26-1.41l8.8-6.29,2.69-1.59,1.28-.92.92-.49a12.31,12.31,0,0,1,2.63-1.58l3.3-1.65,2-1.23.25-.06c.12,0,.28-.14.49-.42a.63.63,0,0,0,.42-.25l.31-.24.12-.37a1.08,1.08,0,0,0,.37-.28.37.37,0,0,0,.06-.21l1-.61c.44,0,.69.12.73.37a3.65,3.65,0,0,0,.67.3,1.35,1.35,0,0,1,.8.73l.06.8.12.73a1.56,1.56,0,0,1-.43,1.13,2.54,2.54,0,0,1-1.83.46,2,2,0,0,1-1.1-.43l-.31-.06-.49.12a2.66,2.66,0,0,1-.58.19,1.87,1.87,0,0,0-.64.27,1.08,1.08,0,0,0-.24.28l-.49.18Z" transform="translate(-140.61 -387.22)"/><path d="M1563.36,612.6l.18-.3c.25-.2.37-.37.37-.49l1-.61c.45,0,.71.12.79.37a4,4,0,0,0,.64.3,1.32,1.32,0,0,1,.77.73l.06.8.18.73a1.51,1.51,0,0,1-.46,1.13,2.66,2.66,0,0,1-1.86.46,2.51,2.51,0,0,1-1.1-.43l-.49-.24a6.74,6.74,0,0,1-1.1.18c-.65.08-1,.19-1.1.31l-.49.18-1.46.61-1.9.92a32.19,32.19,0,0,0-4.27,2l-2.82,1.17-4.21,2.2c-2.77,1.63-4.52,2.6-5.26,2.93l-3.66,1.83a1.46,1.46,0,0,1-.64.31,2.49,2.49,0,0,0-.65.24c-.44.25-1.18.68-2.19,1.31s-1.86,1.12-2.51,1.44l-2.11,1.19c-1,.59-1.88,1-2.53,1.32l-.92.42a15.88,15.88,0,0,1-2,1l-1.65.8a42.73,42.73,0,0,1-4.58,2.44,6.77,6.77,0,0,1-2.56.61,8,8,0,0,1-3.43-.64,2.86,2.86,0,0,1-1.65-2l-.36-2.69a11.82,11.82,0,0,1,.73-4,14.67,14.67,0,0,1,1.89-3.39,33.92,33.92,0,0,1,6.54-7.51c.21-.16.86-.73,2-1.71a30.25,30.25,0,0,1,2.44-2c.45-.28,1.13-.78,2-1.5a32.65,32.65,0,0,1,3.63-2.35l3.18-1.46c1.63-.62,2.56-.95,2.78-1a8.23,8.23,0,0,1,.83-.16l2.32-.61,1.71-.3.86-.19h.61a1.33,1.33,0,0,1,.52.19l.45.24a3.27,3.27,0,0,1,.74,1.29v2.13s-.07.14-.1.4a.86.86,0,0,1-.33.64c0,.29-.23.64-.67,1.07a1.86,1.86,0,0,1-1.1.64,2.88,2.88,0,0,0-.92.16,3.15,3.15,0,0,1-.92.15l-1.83.12-.73.12-1.1.31-1.13.18a5.72,5.72,0,0,0-1.44.43c-.24.12-.94.39-2.08.79a12.74,12.74,0,0,0-2.26,1l-4.09,2.63a25.75,25.75,0,0,0-2.69,2.5l-2.08,2a5.83,5.83,0,0,1-.73.79,10.72,10.72,0,0,0-1,1.1c-.65.9-1.36,2-2.14,3.24a6.52,6.52,0,0,0-.55,1.35c-.2.65-.32,1.06-.36,1.22l-.06.73c0,.82.44,1.22,1.34,1.22l2.2-.12a4.54,4.54,0,0,0,1.44-.36c.63-.25,1.07-.41,1.31-.49a4.84,4.84,0,0,0,.83-.28,10.46,10.46,0,0,0,1.06-.46,10.32,10.32,0,0,1,1.32-.64,7.2,7.2,0,0,1,1.07-.4l1.4-.55,4.46-1.77,1.59-.61q.43-.18,3.09-1.62c1.77-1,2.86-1.52,3.27-1.68l.79-.4q.56-.27,3.15-1.86c1.73-1.06,3.73-2.22,6-3.48a8.87,8.87,0,0,1,1.16-.52c.73-.31,1.26-.54,1.59-.7l2.93-1.41a21.14,21.14,0,0,0,2-.85l1.23-.43,2.62-1.1a11.73,11.73,0,0,1,2-.73l.67-.37Z" transform="translate(-140.61 -387.22)"/><path d="M1599.17,611.81l1-.61c.45,0,.71.12.8.37a3.55,3.55,0,0,0,.64.3,1.3,1.3,0,0,1,.76.73l.06.8.19.73a1.55,1.55,0,0,1-.46,1.13,2.7,2.7,0,0,1-1.86.46,1.93,1.93,0,0,1-1.1-.43l-.43-.18-.25-.06a6.74,6.74,0,0,1-1.1.18c-.65.08-1,.19-1.1.31a8.55,8.55,0,0,0-1.71.61c0,.08-.28.22-.85.43s-1,.38-1.41.55a2.83,2.83,0,0,0-.79.36q-.55.19-3.48,1.71l-2.57,1.35-4.83,3.11-.18.13a9.22,9.22,0,0,0-1.71,1.16,10.73,10.73,0,0,1-1.41,1l-1,.61-1.58.85-2.14,1.35-2.08,1.34-1.28.89c-.61.42-1.14.78-1.59,1.07a3.06,3.06,0,0,0-.4.33,10.35,10.35,0,0,1-1.5.83,2.15,2.15,0,0,1-.67.49,3.58,3.58,0,0,0-.43.3,8.07,8.07,0,0,1-1.1.7l-1,.59a12.19,12.19,0,0,1-2.88,1.46c.08,0-.12.17-.61.4a7.44,7.44,0,0,1-1.83.52,8.5,8.5,0,0,1-2.32.24,5.63,5.63,0,0,1-2.45-.52,4.09,4.09,0,0,1-1.71-1.43,15.18,15.18,0,0,1-1-2.2,13.46,13.46,0,0,1-.36-3.73,11.69,11.69,0,0,1,.42-3l.31-1.23a15.37,15.37,0,0,1,.76-2.29,21.61,21.61,0,0,1,1.07-2.29,48.3,48.3,0,0,1,2.81-4.64,14,14,0,0,1,1.1-1.35,5.93,5.93,0,0,0,.61-.67l.25-.18a22.34,22.34,0,0,1,5-3.73,7.19,7.19,0,0,1,2.08-.85l1.16-.13.85-.06a13.23,13.23,0,0,1,1.59.15,8.25,8.25,0,0,1,2.93,1.32,4.22,4.22,0,0,1,1.53,1.71,1.92,1.92,0,0,1,.31.79v.86a4.66,4.66,0,0,1-.8,2.44c-.53.86-.81,1.33-.85,1.41a4.13,4.13,0,0,1-.31.43c-.16.2-1,1.06-2.63,2.56a9,9,0,0,1-1.58,1.22l-1.41.68a21.72,21.72,0,0,1-2.32,1,11.81,11.81,0,0,1-2.75.92c-.12,0-.68.08-1.68.25a15,15,0,0,0-1.62.3h-.55l-.18.18c-.21.37-.59,1.25-1.17,2.63l-.48,1.22a3,3,0,0,0-.25,1.16v.92a2.16,2.16,0,0,0,2.38,1.9,14.1,14.1,0,0,0,6.3-1.65,13.25,13.25,0,0,1,2.5-1l1.47-.74a38.24,38.24,0,0,1,3.36-1.83l1.65-.92,3.67-2.26q1.34-.74,3.36-2.07a23.5,23.5,0,0,1,2.69-1.65c.16-.13.42-.31.79-.55s1-.67,2-1.26,1.48-.94,1.64-1.07l3.37-1.89,2.75-1.34,2.56-.92.67-.18a17.51,17.51,0,0,1,2.69-1.16,1.31,1.31,0,0,0,.61-.37l.49-.19c0-.12.12-.27.37-.45S1599.17,611.85,1599.17,611.81Zm-30.74,3.73a1.68,1.68,0,0,0-.15-.61c-.1-.25-.48-.41-1.13-.49l-.55-.06a15.37,15.37,0,0,0-2.14.79l-1.83,1.28a13.57,13.57,0,0,0-1.78,1.59l-1.1,1-.79.67-1.22,1.41a10.63,10.63,0,0,0-1,1.34l-.28.61,1-.06,1.71-.18,1.41-.31,1.53-.55,1.28-.85c.08,0,.28-.17.61-.4a4.64,4.64,0,0,0,.61-.46l2-1.89,1.16-1.41A3.56,3.56,0,0,0,1568.43,615.54Z" transform="translate(-140.61 -387.22)"/><path class="cls-14" d="M322.82,522.09c0,.46-.08.92-.13,1.38,0,.29-.06.57-.1.85s-.06.5-.09.75-.11.77-.18,1.15-.15.91-.24,1.37-.17.88-.26,1.32a.19.19,0,0,1,0,.07c-.1.44-.2.88-.31,1.32s-.22.9-.35,1.35-.25.89-.38,1.33-.23.74-.35,1.1a2.53,2.53,0,0,1-.12.36c-.13.4-.27.79-.41,1.18-.32.88-.66,1.74-1,2.6l-.57,1.28c-.19.43-.39.85-.6,1.27a51.38,51.38,0,0,1-13.22,16.8l.19-.14c-.5.43-1,.84-1.53,1.25l0,0c-.59.46-1.19.9-1.79,1.33s-1.21.85-1.82,1.25c-.93.6-1.86,1.16-2.81,1.7l-.95.52c-.64.34-1.28.67-1.92,1l-1,.46c-.65.3-1.3.58-2,.85-1.32.54-2.65,1-4,1.44l-1,.31c-.67.19-1.35.38-2,.55a51.38,51.38,0,0,1-16.78,1.32c-.47,0-.93-.08-1.39-.13l-1.14-.14h0l-.24-.08a51.49,51.49,0,0,1-25-10.67c-.3-.24-.61-.48-.91-.74s-.47-.39-.7-.59l-1.08-1-.18-.16-.68-.65-.45-.43-.4-.4c-.14-.13-.27-.26-.4-.4l-.29-.3-.15-.16-.66-.7-.16-.18-.72-.81-.08-.09c-.26-.29-.51-.59-.75-.88a5.08,5.08,0,0,1-.43-.54l.54.64-.54-.65-.25-.3-.26-.32,0,0h0c-.15-.19-.29-.38-.43-.58l.26.37c-.17-.21-.34-.43-.49-.65-.32-.43-.63-.87-.94-1.31l0,0,0,0q-.56-.8-1.08-1.62c-.36-.57-.72-1.14-1.06-1.72s-.55-1-.82-1.45l-.17-.31a51.57,51.57,0,0,1-5.74-30c0-.08,0-.17,0-.25a51.8,51.8,0,0,1,2.05-9.68,53.7,53.7,0,0,1,2.65-6.73c.42-.87.86-1.74,1.33-2.59s1-1.7,1.48-2.53,1.07-1.64,1.63-2.44q1.27-1.81,2.73-3.52c.65-.76,1.31-1.5,2-2.23a51.36,51.36,0,0,1,5.66-5.12l0,0c.52-.4,1.05-.8,1.59-1.18l-.19.16a52.11,52.11,0,0,1,4.38-2.86l.9-.51c.9-.5,1.81-1,2.74-1.42.61-.29,1.23-.57,1.85-.84l.48-.21.73-.3,1.46-.56.16-.06.07,0,.88-.31.86-.29,1.06-.32.82-.24,1-.26c.71-.18,1.42-.35,2.14-.5a51.55,51.55,0,0,1,18-.64c1,.13,1.89.29,2.83.47a51.33,51.33,0,0,1,17.9,7.19c.5.31,1,.64,1.47,1a48.94,48.94,0,0,1,4,3.07c.76.65,1.5,1.31,2.23,2a51.66,51.66,0,0,1,15.85,41.49Z" transform="translate(-140.61 -387.22)"/><path class="cls-15" d="M275,572c-1,0-2.05,0-3.07-.08a55.94,55.94,0,0,1-52.11-46.33v0a56.12,56.12,0,0,1,6.07-36.5c.11-.2.22-.4.34-.6a55.85,55.85,0,0,1,11.61-14.36c.21-.19.42-.38.64-.56A55.79,55.79,0,0,1,274.79,460H275a56,56,0,0,1,0,112Zm28.1-98.7c-.59-.46-1.19-.9-1.79-1.33s-1.21-.85-1.82-1.25c-.93-.6-1.86-1.16-2.81-1.7l-.95-.52c-.63-.35-1.27-.67-1.92-1l-1-.46c-.65-.3-1.3-.59-2-.85-1.32-.54-2.65-1-4-1.44l-1-.31c-.67-.2-1.35-.38-2-.55a51.38,51.38,0,0,0-16.78-1.32c-.47,0-.93.08-1.39.13l-1.14.14h0l-.24.08a51.49,51.49,0,0,0-25,10.67c-.3.24-.61.48-.91.74s-.47.39-.7.59-.72.63-1.08,1l-.18.16-.68.65-.45.43c-.14.13-.27.26-.4.4l-.4.4-.29.3-.15.16-.66.7-.16.18q-.36.39-.72.81l-.08.09c-.26.29-.51.59-.75.88a5.08,5.08,0,0,0-.43.54l.54-.64-.54.65-.25.3a4,4,0,0,0-.26.32l0,0h0c-.15.19-.29.38-.43.58l.26-.37c-.17.21-.34.43-.49.65-.32.43-.63.87-.94,1.31l0,0,0,0q-.56.79-1.08,1.62c-.36.57-.72,1.14-1.06,1.72s-.55,1-.82,1.45l-.17.31a51.57,51.57,0,0,0-5.74,30c0,.08,0,.17,0,.25a51.8,51.8,0,0,0,2.05,9.68,53.7,53.7,0,0,0,2.65,6.73c.42.87.86,1.74,1.33,2.59s1,1.7,1.48,2.53,1.07,1.64,1.63,2.44q1.27,1.82,2.73,3.52c.64.76,1.31,1.5,2,2.23a51.36,51.36,0,0,0,5.66,5.12l0,0c.52.4,1.05.8,1.59,1.18l-.19-.16a52.11,52.11,0,0,0,4.38,2.86l.85.48.06,0c.89.5,1.8,1,2.73,1.42.61.29,1.23.57,1.85.84l.48.21.9.37,1.29.49.16.06.07,0,.88.31.86.29,1.06.32.82.24,1,.26c.76.2,1.53.37,2.3.53a51.6,51.6,0,0,0,17.82.61c1-.13,1.89-.29,2.83-.47a51.33,51.33,0,0,0,17.9-7.19c.5-.32,1-.64,1.47-1a48.94,48.94,0,0,0,4-3.07c.76-.64,1.5-1.31,2.23-2a51.66,51.66,0,0,0,15.85-41.49c0-.46-.08-.92-.13-1.38,0-.29-.06-.57-.1-.85s-.06-.5-.09-.75-.11-.77-.18-1.15-.15-.91-.24-1.37-.17-.88-.26-1.32a.19.19,0,0,0,0-.07c-.1-.44-.2-.88-.31-1.32s-.22-.9-.35-1.35-.25-.89-.38-1.33-.23-.74-.35-1.1a2.53,2.53,0,0,0-.12-.36c-.13-.4-.27-.79-.41-1.18-.32-.88-.66-1.74-1-2.6l-.57-1.28c-.19-.43-.39-.85-.6-1.27a51.38,51.38,0,0,0-13.22-16.8l.19.14c-.5-.43-1-.84-1.53-1.25Z" transform="translate(-140.61 -387.22)"/></g></g></svg>